<svg width="26" height="27" viewBox="0 0 26 27" fill="none" xmlns="http://www.w3.org/2000/svg">
<g id="Group 1000004552">
<path id="Icon" d="M10.095 6.77355V10.8049L13.1267 13.8284M19.19 10.8049C19.19 15.8144 15.118 19.8754 10.095 19.8754C5.07197 19.8754 1 15.8144 1 10.8049C1 5.79539 5.07197 1.73438 10.095 1.73438C15.118 1.73438 19.19 5.79539 19.19 10.8049Z" stroke="white" stroke-width="2" stroke-linecap="round" stroke-linejoin="round"/>
<path id="Vector" d="M19.5769 17.0847V24.4314M17.7532 22.7061L18.2875 23.1096C18.9994 23.6477 20.1538 23.6477 20.8662 23.1096C21.5787 22.5714 21.5787 21.6996 20.8662 21.1615C20.5106 20.8921 20.0438 20.758 19.5769 20.758C19.1362 20.758 18.6954 20.6234 18.3593 20.3546C17.6869 19.8164 17.6869 18.9446 18.3593 18.4065C19.0316 17.8684 20.1222 17.8684 20.7945 18.4065L21.0468 18.6085M25.048 20.758C25.048 21.4816 24.9064 22.1981 24.6315 22.8666C24.3565 23.5351 23.9536 24.1426 23.4455 24.6542C22.9375 25.1659 22.3344 25.5717 21.6706 25.8486C21.0068 26.1255 20.2954 26.268 19.5769 26.268C18.8584 26.268 18.147 26.1255 17.4832 25.8486C16.8194 25.5717 16.2163 25.1659 15.7083 24.6542C15.2002 24.1426 14.7972 23.5351 14.5223 22.8666C14.2473 22.1981 13.9656 21.3418 13.9656 20.6182C13.9656 19.1569 14.4244 17.9433 16.1301 17.5671C16.6805 16.0583 18.1258 15.248 19.5769 15.248C21.0279 15.248 22.4195 15.8286 23.4455 16.8619C24.4716 17.8952 25.048 19.2967 25.048 20.758Z" stroke="white" stroke-width="1.2" stroke-linecap="round" stroke-linejoin="round"/>
</g>
</svg>
