<svg width="24" height="24" viewBox="0 0 24 24" fill="none" xmlns="http://www.w3.org/2000/svg">
<g id="Frame" clip-path="url(#clip0_24322_513814)">
<g id="vuesax/outline/calendar-remove">
<g id="calendar-remove">
<path id="Vector" d="M8 5.75C7.80149 5.74869 7.61149 5.66925 7.47112 5.52888C7.33075 5.38851 7.25131 5.19851 7.25 5V2C7.25131 1.80149 7.33075 1.61149 7.47112 1.47112C7.61149 1.33075 7.80149 1.25131 8 1.25C8.19851 1.25131 8.38851 1.33075 8.52888 1.47112C8.66925 1.61149 8.74869 1.80149 8.75 2V5C8.74869 5.19851 8.66925 5.38851 8.52888 5.52888C8.38851 5.66925 8.19851 5.74869 8 5.75Z" fill="white"/>
<path id="Vector_2" d="M16 5.75C15.8015 5.74869 15.6115 5.66925 15.4711 5.52888C15.3307 5.38851 15.2513 5.19851 15.25 5V2C15.2513 1.80149 15.3307 1.61149 15.4711 1.47112C15.6115 1.33075 15.8015 1.25131 16 1.25C16.1985 1.25131 16.3885 1.33075 16.5289 1.47112C16.6693 1.61149 16.7487 1.80149 16.75 2V5C16.7487 5.19851 16.6693 5.38851 16.5289 5.52888C16.3885 5.66925 16.1985 5.74869 16 5.75Z" fill="white"/>
<path id="Vector_3" d="M8.5 14.5002C8.23568 14.4971 7.9822 14.3947 7.79 14.2132C7.74699 14.1657 7.70691 14.1156 7.67 14.0632C7.63212 14.0075 7.60186 13.9469 7.58 13.8832C7.55111 13.8265 7.53089 13.7658 7.52 13.7032C7.50873 13.6361 7.50205 13.5682 7.5 13.5002C7.50413 13.2358 7.60767 12.9827 7.79 12.7912C7.98339 12.6127 8.23687 12.5137 8.5 12.5137C8.76313 12.5137 9.01661 12.6127 9.21 12.7912C9.39233 12.9827 9.49587 13.2358 9.5 13.5002C9.49781 13.5672 9.49113 13.634 9.48 13.7002C9.46911 13.7628 9.44889 13.8235 9.42 13.8802C9.39814 13.9439 9.36788 14.0045 9.33 14.0602L9.21 14.2102C9.01826 14.3928 8.76473 14.4963 8.5 14.5002Z" fill="white"/>
<path id="Vector_4" d="M12 14.5011C11.8693 14.4996 11.7402 14.4724 11.62 14.4211C11.4964 14.3752 11.3839 14.3037 11.29 14.2111C11.247 14.1636 11.2069 14.1135 11.17 14.0611C11.1321 14.0054 11.1019 13.9449 11.08 13.8811C11.0511 13.8245 11.0309 13.7638 11.02 13.7011C11.0089 13.635 11.0022 13.5682 11 13.5011C11.0036 13.2361 11.1072 12.9821 11.29 12.7901C11.3839 12.6976 11.4964 12.626 11.62 12.5801C11.8021 12.5036 12.0028 12.4826 12.1968 12.52C12.3908 12.5574 12.5694 12.6514 12.71 12.7901C12.8928 12.9821 12.9964 13.2361 13 13.5011C12.9978 13.5682 12.9911 13.635 12.98 13.7011C12.9691 13.7638 12.9489 13.8245 12.92 13.8811C12.8981 13.9449 12.8679 14.0054 12.83 14.0611L12.71 14.2111C12.5183 14.3937 12.2647 14.4973 12 14.5011Z" fill="white"/>
<path id="Vector_5" d="M8.5 18.0004C8.23489 17.9984 7.98068 17.8946 7.79 17.7104C7.60743 17.5186 7.50388 17.2651 7.5 17.0004C7.50388 16.7356 7.60743 16.4821 7.79 16.2904C7.83751 16.2474 7.88761 16.2073 7.94 16.1704C7.99573 16.1325 8.05626 16.1022 8.12 16.0804C8.17666 16.0515 8.23734 16.0313 8.3 16.0204C8.49486 15.9795 8.69763 16.0005 8.88 16.0804C9.00238 16.1287 9.11439 16.2 9.21 16.2904C9.39257 16.4821 9.49612 16.7356 9.5 17.0004C9.49612 17.2651 9.39257 17.5186 9.21 17.7104C9.11439 17.8008 9.00238 17.8721 8.88 17.9204C8.75978 17.9716 8.63068 17.9988 8.5 18.0004Z" fill="white"/>
<path id="Vector_6" d="M20.5 9.83984H3.5C3.30149 9.83853 3.11149 9.7591 2.97112 9.61873C2.83075 9.47836 2.75131 9.28835 2.75 9.08984C2.75131 8.89134 2.83075 8.70133 2.97112 8.56096C3.11149 8.42059 3.30149 8.34115 3.5 8.33984H20.5C20.6985 8.34115 20.8885 8.42059 21.0289 8.56096C21.1693 8.70133 21.2487 8.89134 21.25 9.08984C21.2487 9.28835 21.1693 9.47836 21.0289 9.61873C20.8885 9.7591 20.6985 9.83853 20.5 9.83984Z" fill="white"/>
<path id="Vector_7" d="M18 23.75C17.0605 23.75 16.1422 23.4714 15.361 22.9495C14.5799 22.4275 13.9711 21.6857 13.6116 20.8177C13.2521 19.9498 13.158 18.9947 13.3413 18.0733C13.5246 17.1519 13.9769 16.3055 14.6412 15.6412C15.3055 14.9769 16.1519 14.5246 17.0733 14.3413C17.9947 14.158 18.9498 14.2521 19.8177 14.6116C20.6857 14.9711 21.4275 15.5799 21.9495 16.361C22.4714 17.1422 22.75 18.0605 22.75 19C22.7489 20.2595 22.2482 21.467 21.3576 22.3576C20.467 23.2482 19.2595 23.7489 18 23.75ZM18 15.75C17.3572 15.75 16.7289 15.9406 16.1944 16.2977C15.6599 16.6548 15.2434 17.1624 14.9974 17.7563C14.7514 18.3501 14.687 19.0036 14.8124 19.634C14.9379 20.2645 15.2474 20.8436 15.7019 21.2981C16.1564 21.7526 16.7355 22.0622 17.366 22.1876C17.9964 22.313 18.6499 22.2486 19.2437 22.0026C19.8376 21.7566 20.3452 21.3401 20.7023 20.8056C21.0594 20.2711 21.25 19.6428 21.25 19C21.2484 18.1385 20.9055 17.3128 20.2963 16.7037C19.6872 16.0945 18.8615 15.7516 18 15.75Z" fill="white"/>
<path id="Vector_8" d="M19.0701 20.8601C18.9716 20.8604 18.8739 20.8412 18.7829 20.8034C18.692 20.7656 18.6094 20.7101 18.5401 20.6401L16.4301 18.5301C16.3003 18.3874 16.2305 18.2003 16.2351 18.0075C16.2397 17.8147 16.3184 17.6311 16.4548 17.4948C16.5912 17.3585 16.7749 17.28 16.9677 17.2756C17.1605 17.2712 17.3476 17.3412 17.4901 17.4711L19.6001 19.5811C19.7393 19.7223 19.8174 19.9127 19.8174 20.1111C19.8174 20.3094 19.7393 20.4998 19.6001 20.6411C19.5307 20.7109 19.4481 20.7663 19.3571 20.8039C19.2661 20.8415 19.1685 20.8606 19.0701 20.8601Z" fill="white"/>
<path id="Vector_9" d="M16.9299 20.8901C16.8314 20.8905 16.7338 20.8712 16.6428 20.8334C16.5518 20.7957 16.4692 20.7401 16.3999 20.6701C16.2607 20.5289 16.1826 20.3385 16.1826 20.1401C16.1826 19.9418 16.2607 19.7514 16.3999 19.6101L18.5109 17.5001C18.6531 17.3676 18.8411 17.2955 19.0354 17.2989C19.2297 17.3024 19.4151 17.3811 19.5525 17.5185C19.6899 17.6559 19.7687 17.8413 19.7721 18.0356C19.7755 18.2299 19.7034 18.4179 19.5709 18.5601L17.4609 20.6701C17.318 20.8079 17.1283 20.8865 16.9299 20.8901Z" fill="white"/>
<path id="Vector_10" d="M15.37 22.75H8C4.35 22.75 2.25 20.65 2.25 17V8.5C2.25 4.85 4.35 2.75 8 2.75H16C19.65 2.75 21.75 4.85 21.75 8.5V16.36C21.7489 16.5128 21.7013 16.6616 21.6136 16.7867C21.526 16.9118 21.4023 17.0073 21.2591 17.0605C21.1158 17.1136 20.9598 17.122 20.8118 17.0844C20.6637 17.0468 20.5305 16.965 20.43 16.85C19.9931 16.355 19.4158 16.0048 18.775 15.8458C18.1342 15.6868 17.4602 15.7267 16.8425 15.9601C16.2249 16.1934 15.693 16.6093 15.3174 17.1523C14.9418 17.6953 14.7404 18.3398 14.74 19C14.7383 19.5895 14.901 20.1679 15.21 20.67C15.3756 20.9571 15.5886 21.214 15.84 21.43C15.9579 21.5287 16.0424 21.6614 16.0818 21.8101C16.1212 21.9587 16.1136 22.1159 16.06 22.26C16.0121 22.4045 15.9194 22.5299 15.7953 22.618C15.6712 22.7062 15.5222 22.7524 15.37 22.75ZM8 4.25C5.14 4.25 3.75 5.64 3.75 8.5V17C3.75 19.86 5.14 21.25 8 21.25H13.82C13.4449 20.5594 13.2489 19.7859 13.25 19C13.2491 18.1781 13.4618 17.37 13.8671 16.6549C14.2724 15.9399 14.8566 15.3424 15.5623 14.921C16.268 14.4996 17.071 14.2687 17.8928 14.251C18.7145 14.2333 19.5268 14.4294 20.25 14.82V8.5C20.25 5.64 18.86 4.25 16 4.25H8Z" fill="white"/>
</g>
</g>
</g>
<defs>
<clipPath id="clip0_24322_513814">
<rect width="24" height="24" fill="white"/>
</clipPath>
</defs>
</svg>
