<svg width="21" height="21" viewBox="0 0 21 21" fill="none" xmlns="http://www.w3.org/2000/svg">
<g clip-path="url(#clip0_24322_511045)">
<path d="M16.8548 20.1919H4.11286C3.11233 20.1919 2.29834 19.3957 2.29834 18.4171V2.91736C2.29834 1.93872 3.11233 1.14258 4.11286 1.14258H16.8548C17.8553 1.14258 18.6693 1.93876 18.6693 2.91736V18.4171C18.6693 19.3957 17.8553 20.1919 16.8548 20.1919Z" fill="#CCE6F5"/>
<path d="M16.8548 1.14258H10.4435V20.1919H16.8548C17.8553 20.1919 18.6693 19.3957 18.6693 18.4171V2.91736C18.6693 1.93872 17.8553 1.14258 16.8548 1.14258Z" fill="#9ED6F2"/>
<path d="M6.18523 13.9194L5.54007 13.2884C5.30386 13.0574 5.30386 12.6828 5.54007 12.4518C5.77624 12.2207 6.15923 12.2207 6.39543 12.4518L6.61294 12.6645L7.50245 11.7945C7.73862 11.5634 8.1216 11.5634 8.35781 11.7945C8.59402 12.0255 8.59402 12.4001 8.35781 12.6311L7.04064 13.9194C6.80443 14.1504 6.4214 14.1504 6.18523 13.9194ZM14.9597 13.4485H10.0806C9.7466 13.4485 9.4758 13.1836 9.4758 12.8569C9.4758 12.5302 9.7466 12.2653 10.0806 12.2653H14.9597C15.2937 12.2653 15.5645 12.5302 15.5645 12.8569C15.5645 13.1836 15.2937 13.4485 14.9597 13.4485ZM14.7782 3.82527H6.18951C5.85548 3.82527 5.58467 3.56039 5.58467 3.23369C5.58467 1.47217 7.04983 0.0390625 8.8508 0.0390625H12.1169C13.9179 0.0390625 15.3831 1.47217 15.3831 3.23369C15.3831 3.56039 15.1122 3.82527 14.7782 3.82527ZM6.18523 17.3112L5.54007 16.6802C5.30386 16.4491 5.30386 16.0746 5.54007 15.8435C5.77624 15.6125 6.15923 15.6125 6.39543 15.8435L6.61294 16.0563L7.50245 15.1863C7.73862 14.9552 8.1216 14.9552 8.35781 15.1863C8.59402 15.4173 8.59402 15.7919 8.35781 16.0229L7.04064 17.3112C6.80443 17.5422 6.4214 17.5423 6.18523 17.3112ZM14.9597 16.8403H10.0806C9.7466 16.8403 9.4758 16.5755 9.4758 16.2487C9.4758 15.922 9.7466 15.6572 10.0806 15.6572H14.9597C15.2937 15.6572 15.5645 15.922 15.5645 16.2487C15.5645 16.5755 15.2937 16.8403 14.9597 16.8403ZM14.0808 5.68042C14.0304 5.67822 14.2565 5.67893 12.3606 5.67893C11.9922 5.67893 11.6935 5.97107 11.6935 6.33144C11.6935 6.6918 11.9922 6.98391 12.3606 6.98391H12.5281L11.2097 8.27351L9.37927 6.48322C9.1431 6.25216 8.76011 6.25216 8.5239 6.48322L6.34648 8.61297C6.11027 8.84399 6.11027 9.21856 6.34648 9.44958C6.58265 9.68064 6.96564 9.68064 7.20185 9.44958L8.9516 7.73818L10.782 9.52846C11.0182 9.75948 11.4012 9.75952 11.6374 9.52846L13.3835 7.82052V7.98439C13.3835 8.34475 13.6822 8.6369 14.0506 8.6369C14.4191 8.6369 14.7177 8.34475 14.7177 7.98439V6.3314C14.7177 5.88019 14.3954 5.66412 14.0808 5.68042Z" fill="#238FC0"/>
<path d="M15.5644 12.8569C15.5644 12.5302 15.2936 12.2653 14.9596 12.2653H10.4435V13.4485H14.9596C15.2936 13.4485 15.5644 13.1836 15.5644 12.8569ZM14.9596 15.6571H10.4435V16.8403H14.9596C15.2936 16.8403 15.5644 16.5755 15.5644 16.2487C15.5644 15.922 15.2936 15.6571 14.9596 15.6571ZM14.0807 5.68042C14.0304 5.67822 14.2564 5.67893 12.3606 5.67893C11.9922 5.67893 11.6935 5.97107 11.6935 6.33144C11.6935 6.6918 11.9922 6.98391 12.3606 6.98391H12.5281L11.2096 8.27351L10.4435 7.52416V9.19742L10.7819 9.52846C11.0181 9.75948 11.4011 9.75952 11.6373 9.52846L13.3834 7.82052V7.98439C13.3834 8.34475 13.6821 8.6369 14.0505 8.6369C14.419 8.6369 14.7177 8.34475 14.7177 7.98439V6.3314C14.7177 5.88019 14.3953 5.66412 14.0807 5.68042ZM12.1169 0.0390625H10.4435V3.82527H14.7782C15.1122 3.82527 15.383 3.56039 15.383 3.23369C15.383 1.47217 13.9178 0.0390625 12.1169 0.0390625Z" fill="#2FA9E0"/>
</g>
<defs>
<clipPath id="clip0_24322_511045">
<rect width="20.6452" height="20.1536" fill="white" transform="translate(0.161255 0.0390625)"/>
</clipPath>
</defs>
</svg>
