<svg width="20" height="21" viewBox="0 0 20 21" fill="none" xmlns="http://www.w3.org/2000/svg">
<g clip-path="url(#clip0_24322_511076)">
<path d="M7.70828 0.5H1.45828C0.654141 0.5 0 1.15414 0 1.95828V5.70828C0 6.51258 0.654141 7.16672 1.45828 7.16672H7.70828C8.51258 7.16672 9.16672 6.51258 9.16672 5.70828V1.95828C9.16672 1.15414 8.51258 0.5 7.70828 0.5Z" fill="#30A9E0"/>
<path d="M7.70828 8.83398H1.45828C0.654141 8.83398 0 9.48813 0 10.2924V19.0424C0 19.8466 0.654141 20.5007 1.45828 20.5007H7.70828C8.51258 20.5007 9.16672 19.8466 9.16672 19.0424V10.2924C9.16672 9.48813 8.51258 8.83398 7.70828 8.83398Z" fill="#1978A9"/>
<path d="M18.5417 13.834H12.2917C11.4874 13.834 10.8333 14.4881 10.8333 15.2924V19.0424C10.8333 19.8466 11.4874 20.5007 12.2917 20.5007H18.5417C19.3458 20.5007 20 19.8466 20 19.0424V15.2924C20 14.4881 19.3458 13.834 18.5417 13.834Z" fill="#30A9E0"/>
<path d="M18.5417 0.5H12.2917C11.4874 0.5 10.8333 1.15414 10.8333 1.95828V10.7083C10.8333 11.5126 11.4874 12.1667 12.2917 12.1667H18.5417C19.3458 12.1667 20 11.5126 20 10.7083V1.95828C20 1.15414 19.3458 0.5 18.5417 0.5Z" fill="#1978A9"/>
</g>
<defs>
<clipPath id="clip0_24322_511076">
<rect width="20" height="20" fill="white" transform="translate(0 0.5)"/>
</clipPath>
</defs>
</svg>
