<svg width="28" height="28" viewBox="0 0 28 28" fill="none" xmlns="http://www.w3.org/2000/svg">
<g id="Layer_2_00000173879572841813308790000017194477405407968141_" clip-path="url(#clip0_24499_34447)">
<g id="Icon">
<g id="_13">
<path id="Vector" d="M27.3164 12.2285L24.8992 10.0465V5.46367C24.8992 4.65977 24.2484 4.00898 23.4445 4.00898H20.5351C19.9336 4.00898 19.4195 4.37539 19.1953 4.89492L15.3781 1.44414C14.9953 1.09961 14.5031 0.908203 13.989 0.908203C13.475 0.908203 12.9773 1.09961 12.6 1.44414L0.683579 12.2285C0.0437357 12.8082 -0.169546 13.7051 0.142173 14.509C0.453892 15.3129 1.21405 15.8379 2.07811 15.8379C2.42811 15.8379 2.77264 15.7504 3.07342 15.5809V24.9105C3.07342 26.1137 4.05233 27.0926 5.25545 27.0926H22.7172C23.9203 27.0926 24.8992 26.1137 24.8992 24.9105V15.5809C25.2 15.7449 25.5445 15.8379 25.8945 15.8379H25.9273C26.7914 15.8379 27.5515 15.3184 27.8633 14.509C28.1695 13.7051 27.9562 12.8082 27.3164 12.2285ZM20.5297 4.73633H23.439C23.8437 4.73633 24.1664 5.06445 24.1664 5.46367V9.39023L19.8023 5.44727C19.8133 5.04805 20.1359 4.73633 20.5297 4.73633ZM22.7172 26.3707H5.25545C4.45155 26.3707 3.80077 25.7199 3.80077 24.916V15.0066L13.9836 6.02695L24.1719 15.0121V24.916C24.1719 25.7145 23.5211 26.3707 22.7172 26.3707ZM25.9273 15.1105H25.8945C25.5664 15.1105 25.2492 14.9902 25.0031 14.7715L13.9836 5.05898L2.96405 14.777C2.71795 14.9957 2.40077 15.116 2.07264 15.116C0.842173 15.116 0.257017 13.6012 1.1703 12.7754L13.0812 1.98008C13.5953 1.51523 14.3719 1.51523 14.8859 1.98008L26.8242 12.7699C27.743 13.5957 27.1578 15.1105 25.9273 15.1105ZM12.6328 18.627H10.3469C9.7453 18.627 9.25858 19.1191 9.25858 19.7207V22.0066C9.25858 22.6082 9.7453 23.1004 10.3469 23.1004H12.6328C13.2344 23.1004 13.7211 22.6082 13.7211 22.0066V19.7207C13.7265 19.1137 13.2344 18.627 12.6328 18.627ZM12.9992 22.0012C12.9992 22.2035 12.8351 22.3676 12.6383 22.3676H10.3523C10.15 22.3676 9.99139 22.2035 9.99139 22.0012V19.7152C9.99139 19.5129 10.1555 19.3543 10.3523 19.3543H12.6328C12.8351 19.3543 12.9937 19.5184 12.9937 19.7152V22.0012H12.9992ZM17.6203 13.634H15.3344C14.7328 13.634 14.2406 14.1262 14.2406 14.7277V17.0137C14.2406 17.6152 14.7328 18.1074 15.3344 18.1074H17.6203C18.2219 18.1074 18.714 17.6152 18.714 17.0137V14.7277C18.714 14.1262 18.2219 13.634 17.6203 13.634ZM17.9867 17.0137C17.9867 17.216 17.8226 17.3746 17.6258 17.3746H15.3398C15.1375 17.3746 14.9789 17.2105 14.9789 17.0137V14.7277C14.9789 14.5254 15.143 14.3613 15.3398 14.3613H17.6258C17.8281 14.3613 17.9867 14.5254 17.9867 14.7277V17.0137ZM12.6328 13.634H10.3469C9.7453 13.634 9.25858 14.1262 9.25858 14.7277V17.0137C9.25858 17.6152 9.7453 18.1074 10.3469 18.1074H12.6328C13.2344 18.1074 13.7211 17.6152 13.7211 17.0137V14.7277C13.7265 14.1262 13.2344 13.634 12.6328 13.634ZM12.9992 17.0137C12.9992 17.216 12.8351 17.3746 12.6383 17.3746H10.3523C10.15 17.3746 9.99139 17.2105 9.99139 17.0137V14.7277C9.99139 14.5254 10.1555 14.3613 10.3523 14.3613H12.6328C12.8351 14.3613 12.9937 14.5254 12.9937 14.7277V17.0137H12.9992ZM17.6203 18.627H15.3344C14.7328 18.627 14.2406 19.1191 14.2406 19.7207V22.0066C14.2406 22.6082 14.7328 23.1004 15.3344 23.1004H17.6203C18.2219 23.1004 18.714 22.6082 18.714 22.0066V19.7207C18.714 19.1137 18.2219 18.627 17.6203 18.627ZM17.9867 22.0012C17.9867 22.2035 17.8226 22.3621 17.6258 22.3621H15.3398C15.1375 22.3621 14.9789 22.198 14.9789 22.0012V19.7152C14.9789 19.5129 15.143 19.3488 15.3398 19.3488H17.6258C17.8281 19.3488 17.9867 19.5129 17.9867 19.7152V22.0012Z" fill="white"/>
</g>
</g>
</g>
<defs>
<clipPath id="clip0_24499_34447">
<rect width="28" height="28" fill="white"/>
</clipPath>
</defs>
</svg>
