<svg width="28" height="28" viewBox="0 0 28 28" fill="none" xmlns="http://www.w3.org/2000/svg">
<g id="Frame" clip-path="url(#clip0_24499_34475)">
<g id="Layer_x0020_1">
<path id="Vector" d="M16.0234 12.7969V16.8984C15.8593 19.0312 14.9296 20.125 14.4921 20.6719H15.5312C16.625 20.6172 18.2656 20.5625 20.7812 20.5625C23.2968 20.5625 24.9921 20.6172 26.0312 20.6719H27.125C26.6328 20.125 25.7031 19.0312 25.5937 16.8984V16.8438V12.7969V12.7422C25.5937 10.4453 24.3906 8.91406 22.8593 8.25781C22.2031 7.98438 21.4921 7.875 20.7812 7.875C20.125 7.875 19.414 7.98438 18.7578 8.25781C17.1718 8.91406 15.9687 10.4453 16.0234 12.7969ZM15.3671 16.8984V12.7969C15.3125 10.1172 16.6796 8.42188 18.4843 7.65625C19.25 7.32812 20.0156 7.21875 20.7812 7.21875C21.6015 7.21875 22.3671 7.32812 23.0781 7.65625C24.8828 8.42188 26.25 10.1172 26.25 12.7422V12.7969V16.8984C26.3593 18.7578 27.1796 19.7969 27.6171 20.2891C28 20.7266 28.164 20.9453 27.8359 21.2188C27.6171 21.3828 27.125 21.3828 26.0312 21.3281C24.9921 21.2734 23.3515 21.2188 20.7812 21.2188C18.2656 21.2188 16.625 21.2734 15.5859 21.3281C14.4921 21.3828 14 21.3828 13.7812 21.2188C13.3984 20.9453 13.6171 20.7266 13.9453 20.2891C14.3828 19.7969 15.2031 18.7578 15.3671 16.8984ZM14.2734 20.7266C14.164 20.6719 14.0546 20.6172 14.164 20.6719C14.164 20.7266 14.2187 20.7266 14.2734 20.7266ZM27.289 20.7266C27.3984 20.7266 27.3984 20.7266 27.3984 20.6719C27.5078 20.6172 27.3984 20.6719 27.289 20.7266Z" fill="white"/>
<path id="Vector_2" d="M18.8672 7.875C18.9219 8.03906 19.1406 8.14844 19.3047 8.09375C19.4688 8.03906 19.5781 7.875 19.5234 7.71094C19.5234 7.60156 19.4688 7.54688 19.4688 7.49219C19.4688 7.4375 19.4688 7.38281 19.4688 7.27344C19.4688 6.94531 19.6328 6.5625 19.8516 6.34375C20.0703 6.125 20.4531 5.96094 20.7812 5.96094C21.1641 5.96094 21.4922 6.125 21.7656 6.34375C21.9844 6.5625 22.1484 6.94531 22.1484 7.27344V7.49219C22.0938 7.54688 22.0938 7.60156 22.0938 7.71094C22.0391 7.875 22.1484 8.03906 22.3125 8.09375C22.4766 8.14844 22.6406 8.03906 22.6953 7.875C22.75 7.76562 22.75 7.65625 22.75 7.60156C22.8047 7.49219 22.8047 7.38281 22.8047 7.27344C22.8047 6.72656 22.5859 6.23438 22.2031 5.90625C21.8203 5.52344 21.3281 5.30469 20.7812 5.30469C20.2344 5.30469 19.7422 5.52344 19.3594 5.90625C19.0312 6.23438 18.8125 6.72656 18.8125 7.27344V7.60156C18.8125 7.65625 18.8672 7.76562 18.8672 7.875Z" fill="white"/>
<path id="Vector_3" d="M22.6406 20.8906C22.6406 20.6719 22.4766 20.5625 22.3125 20.5625C22.1484 20.5625 21.9844 20.6719 21.9844 20.8906C21.9844 21.2188 21.8203 21.4922 21.6016 21.7109C21.4375 21.9297 21.1094 22.0391 20.7812 22.0391C20.4531 22.0391 20.1797 21.9297 19.9609 21.7109C19.7422 21.4922 19.6328 21.2188 19.6328 20.8906C19.6328 20.6719 19.4688 20.5625 19.3047 20.5625C19.0859 20.5625 18.9766 20.6719 18.9766 20.8906C18.9766 21.3828 19.1953 21.8203 19.5234 22.1484C19.8516 22.4766 20.2891 22.6953 20.7812 22.6953C21.3281 22.6953 21.7656 22.4766 22.0938 22.1484C22.4219 21.8203 22.6406 21.3828 22.6406 20.8906Z" fill="white"/>
<path id="Vector_4" d="M7.875 1.85938H8.80469V1.53125C8.80469 1.09375 8.96875 0.710938 9.24219 0.4375C9.51562 0.164062 9.89844 0 10.3359 0H10.8281C11.2656 0 11.6484 0.164062 11.9219 0.4375C12.1953 0.710938 12.3594 1.09375 12.3594 1.53125V1.85938H13.2891C13.6172 1.85938 14 2.02344 14.2188 2.29688C14.4375 2.51562 14.6016 2.84375 14.6016 3.22656V5.6875C14.6016 6.07031 14.4375 6.39844 14.2188 6.61719C14 6.89062 13.6172 7 13.2891 7H7.875C7.49219 7 7.16406 6.89062 6.94531 6.61719C6.67188 6.39844 6.5625 6.07031 6.5625 5.6875V3.22656C6.5625 2.84375 6.67188 2.51562 6.94531 2.29688C7.16406 2.02344 7.49219 1.85938 7.875 1.85938ZM9.13281 2.51562H7.875C7.71094 2.51562 7.54688 2.625 7.38281 2.73438C7.27344 2.84375 7.21875 3.0625 7.21875 3.22656V5.6875C7.21875 5.85156 7.27344 6.01562 7.38281 6.17969C7.54688 6.28906 7.71094 6.34375 7.875 6.34375H13.2891C13.4531 6.34375 13.6172 6.28906 13.7812 6.17969C13.8906 6.01562 13.9453 5.85156 13.9453 5.6875V3.22656C13.9453 3.0625 13.8906 2.84375 13.7812 2.73438C13.6172 2.625 13.4531 2.51562 13.2891 2.51562H12.0312C11.8125 2.51562 11.7031 2.40625 11.7031 2.1875V1.53125C11.7031 1.25781 11.5938 1.03906 11.4297 0.929688C11.2656 0.765625 11.0469 0.65625 10.8281 0.65625H10.3359C10.0625 0.65625 9.84375 0.765625 9.73438 0.929688C9.57031 1.03906 9.46094 1.25781 9.46094 1.53125V2.1875C9.46094 2.40625 9.29688 2.51562 9.13281 2.51562Z" fill="white"/>
<path id="Vector_5" d="M14.2734 5.35938C14.1094 5.35938 13.9453 5.52344 13.9453 5.6875C13.9453 5.90625 14.1094 6.01562 14.2734 6.01562H18.4844C18.5938 6.01562 18.7031 6.07031 18.7578 6.17969C18.8672 6.23438 18.9219 6.34375 18.9219 6.45312V6.72656C18.9219 6.94531 19.0312 7.05469 19.25 7.05469C19.4141 7.05469 19.5781 6.94531 19.5781 6.72656V6.45312C19.5781 6.125 19.4141 5.90625 19.25 5.6875C19.0312 5.52344 18.8125 5.35938 18.4844 5.35938H14.2734ZM19.5781 20.8906C19.5781 20.6719 19.4141 20.5625 19.25 20.5625C19.0312 20.5625 18.9219 20.6719 18.9219 20.8906V22.6406L16.0234 25.375H2.67969C2.57031 25.375 2.46094 25.3203 2.35156 25.2109C2.29688 25.1562 2.24219 25.0469 2.24219 24.9375V6.45312C2.24219 6.34375 2.29688 6.23438 2.35156 6.17969C2.46094 6.07031 2.57031 6.01562 2.67969 6.01562H6.89062C7.05469 6.01562 7.21875 5.90625 7.21875 5.6875C7.21875 5.52344 7.05469 5.35938 6.89062 5.35938H2.67969C2.35156 5.35938 2.07812 5.52344 1.91406 5.6875C1.69531 5.90625 1.58594 6.125 1.58594 6.45312V24.9375C1.58594 25.2109 1.69531 25.4844 1.91406 25.6484V25.7031C2.07812 25.8672 2.35156 26.0312 2.67969 26.0312H16.1328V25.9766C16.2422 26.0312 16.2969 25.9766 16.3516 25.9219L19.4141 23.0234C19.5234 22.9688 19.5781 22.8594 19.5781 22.75V20.8906Z" fill="white"/>
<path id="Vector_6" d="M15.8047 25.7031C15.8047 25.8672 15.9688 26.0312 16.1328 26.0312C16.3516 26.0312 16.4609 25.8672 16.4609 25.7031V23.7344C16.4609 23.5703 16.5703 23.4062 16.6797 23.2969C16.7891 23.1875 16.9531 23.0781 17.1172 23.0781H19.25C19.4141 23.0781 19.5781 22.9688 19.5781 22.75C19.5781 22.5859 19.4141 22.4219 19.25 22.4219H17.1172C16.7891 22.4219 16.4609 22.5859 16.2422 22.8047C16.1875 22.8047 16.1875 22.8047 16.1875 22.8047C15.9688 23.0781 15.8047 23.4062 15.8047 23.7344V25.7031Z" fill="white"/>
<path id="Vector_7" d="M4.70312 9.35156C5.08594 9.35156 5.41406 9.51562 5.63281 9.73438C5.90625 10.0078 6.07031 10.3359 6.07031 10.7188C6.07031 11.1016 5.90625 11.4297 5.63281 11.7031C5.41406 11.9219 5.08594 12.0859 4.70312 12.0859C4.32031 12.0859 3.99219 11.9219 3.71875 11.7031C3.5 11.4297 3.33594 11.1016 3.33594 10.7188C3.33594 10.3359 3.5 10.0078 3.71875 9.73438C3.99219 9.51562 4.32031 9.35156 4.70312 9.35156ZM5.19531 10.2266C5.08594 10.1172 4.86719 10.0078 4.70312 10.0078C4.48438 10.0078 4.32031 10.1172 4.21094 10.2266C4.10156 10.3359 3.99219 10.5 3.99219 10.7188C3.99219 10.9375 4.10156 11.1016 4.21094 11.2109C4.32031 11.3203 4.48438 11.4297 4.70312 11.4297C4.86719 11.4297 5.08594 11.3203 5.19531 11.2109C5.30469 11.1016 5.41406 10.9375 5.41406 10.7188C5.41406 10.5 5.30469 10.3359 5.19531 10.2266Z" fill="white"/>
<path id="Vector_8" d="M7.65625 10.3906C7.49219 10.3906 7.32812 10.5547 7.32812 10.7188C7.32812 10.8828 7.49219 11.0469 7.65625 11.0469H16.0234C16.1875 11.0469 16.3516 10.8828 16.3516 10.7188C16.3516 10.5547 16.1875 10.3906 16.0234 10.3906H7.65625Z" fill="white"/>
<path id="Vector_9" d="M4.70312 14.3281C5.08594 14.3281 5.41406 14.4922 5.63281 14.7109C5.90625 14.9844 6.07031 15.3125 6.07031 15.6953C6.07031 16.0781 5.90625 16.4062 5.63281 16.6797C5.41406 16.8984 5.08594 17.0625 4.70312 17.0625C4.32031 17.0625 3.99219 16.8984 3.71875 16.6797C3.5 16.4062 3.33594 16.0781 3.33594 15.6953C3.33594 15.3125 3.5 14.9844 3.71875 14.7109C3.99219 14.4922 4.32031 14.3281 4.70312 14.3281ZM5.19531 15.2031C5.08594 15.0938 4.86719 14.9844 4.70312 14.9844C4.48438 14.9844 4.32031 15.0938 4.21094 15.2031C4.10156 15.3125 3.99219 15.4766 3.99219 15.6953C3.99219 15.9141 4.10156 16.0781 4.21094 16.1875C4.32031 16.2969 4.48438 16.4062 4.70312 16.4062C4.86719 16.4062 5.08594 16.2969 5.19531 16.1875C5.30469 16.0781 5.41406 15.9141 5.41406 15.6953C5.41406 15.4766 5.30469 15.3125 5.19531 15.2031Z" fill="white"/>
<path id="Vector_10" d="M7.65625 15.3672C7.49219 15.3672 7.32812 15.5312 7.32812 15.6953C7.32812 15.8594 7.49219 16.0234 7.65625 16.0234H15.6953C15.8594 16.0234 16.0234 15.8594 16.0234 15.6953C16.0234 15.5312 15.8594 15.3672 15.6953 15.3672H7.65625Z" fill="white"/>
<path id="Vector_11" d="M4.70312 19.3047C5.08594 19.3047 5.41406 19.4688 5.63281 19.6875C5.90625 19.9609 6.07031 20.2891 6.07031 20.6719C6.07031 21.0547 5.90625 21.3828 5.63281 21.6562C5.41406 21.875 5.08594 22.0391 4.70312 22.0391C4.32031 22.0391 3.99219 21.875 3.71875 21.6562C3.5 21.3828 3.33594 21.0547 3.33594 20.6719C3.33594 20.2891 3.5 19.9609 3.71875 19.6875C3.99219 19.4688 4.32031 19.3047 4.70312 19.3047ZM5.19531 20.1797C5.08594 20.0703 4.86719 19.9609 4.70312 19.9609C4.48438 19.9609 4.32031 20.0703 4.21094 20.1797C4.10156 20.2891 3.99219 20.4531 3.99219 20.6719C3.99219 20.8906 4.10156 21.0547 4.21094 21.1641C4.32031 21.2734 4.48438 21.3828 4.70312 21.3828C4.86719 21.3828 5.08594 21.2734 5.19531 21.1641C5.30469 21.0547 5.41406 20.8906 5.41406 20.6719C5.41406 20.4531 5.30469 20.2891 5.19531 20.1797Z" fill="white"/>
<path id="Vector_12" d="M7.65625 20.3438C7.49219 20.3438 7.32812 20.5078 7.32812 20.6719C7.32812 20.8359 7.49219 21 7.65625 21H14.0547C14.2734 21 14.3828 20.8359 14.3828 20.6719C14.3828 20.5078 14.2734 20.3438 14.0547 20.3438H7.65625Z" fill="white"/>
<path id="Vector_13" d="M14.2734 3.39062C14.1094 3.39062 13.9453 3.55469 13.9453 3.71875C13.9453 3.88281 14.1094 4.04688 14.2734 4.04688H19.6875C19.9062 4.04688 20.0703 4.15625 20.2344 4.26562C20.3984 4.42969 20.4531 4.64844 20.4531 4.86719V5.63281C20.4531 5.79688 20.6172 5.96094 20.7812 5.96094C21 5.96094 21.1094 5.79688 21.1094 5.63281V4.86719C21.1094 4.42969 20.9453 4.10156 20.7266 3.82812H20.6719C20.4531 3.55469 20.0703 3.39062 19.6875 3.39062H14.2734ZM21.1094 22.3672C21.1094 22.2031 21 22.0391 20.7812 22.0391C20.6172 22.0391 20.4531 22.2031 20.4531 22.3672V26.5234C20.4531 26.7422 20.3984 26.9609 20.2344 27.125C20.0703 27.2344 19.9062 27.3438 19.6875 27.3438H1.47656C1.25781 27.3438 1.03906 27.2344 0.929688 27.125C0.929688 27.125 0.929688 27.125 0.929688 27.0703C0.765625 26.9609 0.65625 26.7422 0.65625 26.5234V4.86719C0.65625 4.64844 0.765625 4.42969 0.929688 4.26562C1.09375 4.10156 1.25781 4.04688 1.47656 4.04688H6.89062C7.05469 4.04688 7.21875 3.88281 7.21875 3.71875C7.21875 3.55469 7.05469 3.39062 6.89062 3.39062H1.47656C1.09375 3.39062 0.710938 3.55469 0.492188 3.77344C0.492188 3.82812 0.4375 3.82812 0.4375 3.82812C0.164062 4.10156 0 4.42969 0 4.86719V26.5234C0 26.9062 0.164062 27.2891 0.4375 27.5625C0.710938 27.8359 1.09375 28 1.47656 28H19.6875C20.0703 28 20.3984 27.8359 20.6719 27.6172C20.6719 27.5625 20.6719 27.5625 20.6719 27.5625C20.9453 27.2891 21.1094 26.9609 21.1094 26.5234V22.3672Z" fill="white"/>
</g>
</g>
<defs>
<clipPath id="clip0_24499_34475">
<rect width="28" height="28" fill="white"/>
</clipPath>
</defs>
</svg>
