<svg width="97" height="95" viewBox="0 0 97 95" fill="none" xmlns="http://www.w3.org/2000/svg">
<g id="Logoicon" clip-path="url(#clip0_20783_158176)">
<path id="Subtract" fill-rule="evenodd" clip-rule="evenodd" d="M80.32 45.0563C80.3617 45.1373 80.3999 45.2164 80.4348 45.2935C81.3161 45.7418 82.2343 46.0975 83.1895 46.3605L80.32 49.9171C78.5242 51.7137 76.4963 53.1562 74.2366 54.2444C69.6844 55.2435 65.8009 53.9987 62.5864 50.5099C61.9412 45.0266 59.2438 41.055 54.4943 38.595C55.3655 38.1845 56.2072 37.7103 57.0195 37.1724C61.7498 34.0223 63.4524 29.5765 62.1272 23.8348C61.4704 21.4901 60.4755 19.3165 59.1429 17.3142C56.559 13.2404 54.0338 9.13052 51.5674 4.98437C51.8242 5.74373 52.0154 6.53402 52.1413 7.3555C52.5056 10.5533 51.6448 13.3196 49.5587 15.6544C50.0679 16.9692 50.8714 18.0362 51.9691 18.8554C52.6252 18.1181 53.2183 17.3277 53.7482 16.4843C53.8507 16.3407 53.9464 16.3407 54.0352 16.4843C54.7203 17.6463 55.4282 18.7923 56.1586 19.9224C56.5758 20.7772 56.9583 21.6466 57.3064 22.5307C59.5289 29.001 57.7882 34.0002 52.0839 37.528C51.5863 37.5592 51.089 37.5395 50.5918 37.4688C50.1089 37.4494 49.6306 37.489 49.157 37.5873C48.8179 37.5762 48.7988 37.5169 49.0996 37.4095L48.3535 37.3502C47.4933 37.444 46.6324 37.5231 45.771 37.5873C42.6602 38.2359 40.0584 39.7772 37.9659 42.211C37.7324 40.5983 37.3689 39.0176 36.8754 37.4688C36.1918 35.4986 35.0632 33.8586 33.4894 32.5487C30.0103 30.2064 26.2225 29.495 22.1261 30.4147C16.8707 31.7618 11.629 33.1252 6.40112 34.5049L7.89327 34.742C11.0711 35.1848 13.4815 36.8051 15.1245 39.6028C15.2958 39.7148 15.468 39.8334 15.641 39.9584C16.1924 39.8019 16.7471 39.6636 17.3053 39.5435C17.737 39.2157 18.1961 38.9391 18.6827 38.7136C18.769 38.634 18.8073 38.5353 18.7975 38.4172C18.4259 37.4599 17.8903 36.6102 17.1905 35.8682C20.4913 34.6267 23.8965 34.1921 27.406 34.5641C27.9971 34.5959 28.5711 34.7145 29.1277 34.9198C33.1888 36.8226 35.561 40.0632 36.2442 44.6414C33.9453 49.3756 33.9645 54.098 36.3015 58.8089C36.6004 59.0837 36.7344 59.3997 36.7033 59.7573C35.7734 59.4348 34.817 59.257 33.8338 59.2238C30.6656 58.7338 27.7961 59.4451 25.2252 61.3578C22.2971 64.1864 20.671 67.6838 20.347 71.85C19.9978 77.2639 19.6918 82.678 19.4288 88.0922C20.6185 84.2348 23.1245 81.9031 26.9469 81.0974C27.0585 80.9908 27.1349 80.8525 27.1765 80.6825C27.3964 79.4275 27.2816 78.2222 26.8321 77.0665C25.832 77.1795 24.8756 77.4561 23.9626 77.8964C23.6681 73.6134 24.5673 69.6221 26.66 65.9222C29.6755 62.5187 33.4059 61.1948 37.8511 61.9506C38.7608 62.0454 39.4877 62.4802 40.0319 63.2547C43.6639 65.9538 47.6813 66.8231 52.0839 65.8629C50.972 67.5083 50.1494 69.3064 49.6161 71.2572C49.043 73.3667 49.0812 75.4613 49.7309 77.5407C51.3673 81.5412 54.1411 84.3667 58.0525 86.0175C62.9104 88.0124 67.7695 90.0082 72.6297 92.0046C72.767 91.9636 72.767 91.9043 72.6297 91.8267C69.4876 89.4248 68.1102 86.204 68.4976 82.1644C67.9346 81.9149 67.3607 81.6579 66.7759 81.3938C66.1261 81.3188 65.4756 81.2595 64.8246 81.216C64.8518 81.369 64.8136 81.4876 64.7098 81.5716C64.6222 82.4776 64.5839 83.3866 64.595 84.2984C60.8299 83.1937 57.5586 81.2179 54.7813 78.3706C52.987 75.5798 52.4131 72.5369 53.0596 69.2418C53.3808 67.5319 54.0121 65.9708 54.9534 64.5588C55.5539 64.2943 56.1278 63.9783 56.6752 63.6104C60.0226 61.0649 61.9739 57.6465 62.529 53.3553C63.6699 54.7515 64.9708 55.9568 66.4315 56.9712C69.1182 58.8004 72.0259 59.2747 75.1549 58.3939C78.3301 57.3965 80.9509 55.5589 83.0174 52.8811C86.2837 48.7562 89.5932 44.6661 92.9459 40.6105C92.185 41.1102 91.3816 41.5844 90.5355 42.0332C89.2408 42.5338 87.9016 42.8302 86.5182 42.9223C85.1379 42.7874 83.7988 42.4712 82.5009 41.9739H82.0417C81.3246 42.8105 80.7507 43.8379 80.32 45.0563ZM58.913 45.0557C55.942 40.7065 51.8673 38.7701 46.6889 39.2464C45.8553 39.4793 45.0136 39.7362 44.1637 40.0171C38.6576 42.636 36.1133 47.0818 36.5307 53.3546C37.5541 59.0745 40.7872 62.651 46.2297 64.0839C51.6174 64.8273 55.8452 62.9106 58.913 58.334C61.2758 53.911 61.2758 49.4848 58.913 45.0557Z" fill="#1B91CF"/>
<g id="Group">
<path id="Vector" fill-rule="evenodd" clip-rule="evenodd" d="M49.5592 15.6541C50.0684 16.9689 50.8718 18.0359 51.9696 18.8551C55.1826 22.0002 56.0435 25.7545 54.5522 30.1179C52.52 34.5178 49.1339 36.5925 44.394 36.3421C40.2903 35.6206 37.5547 33.2297 36.1872 29.1695C35.8051 27.2923 35.6903 25.3954 35.8429 23.4788C36.0222 22.5398 36.2901 21.6309 36.6463 20.752C38.8764 16.8899 41.0764 13.0171 43.2462 9.13351C43.2418 9.26191 43.2034 9.38046 43.1315 9.48918C43.208 9.52866 43.2845 9.56826 43.361 9.60773C43.2058 9.92404 43.1293 10.2599 43.1315 10.6155C43.2683 11.4689 43.2683 12.3186 43.1315 13.1644C43.2633 13.8688 43.4737 14.5406 43.7628 15.1799C43.9154 15.3081 44.0876 15.3872 44.2793 15.417C42.9693 17.7998 41.6493 20.171 40.3193 22.5303C39.8513 23.7528 39.5643 25.0173 39.4585 26.3241C39.6006 28.902 40.7867 30.7791 43.0167 31.9556C43.6236 32.1321 44.2358 32.2704 44.8532 32.3705C46.4148 32.4822 47.7921 32.0474 48.9853 31.0664C50.5673 29.9255 51.3708 28.3448 51.3957 26.3241C51.3966 24.37 50.6697 22.7695 49.2148 21.5226C48.9859 21.4499 48.7945 21.5092 48.6409 21.7005C48.6319 21.5309 48.6701 21.3728 48.7557 21.2262C47.8747 20.3959 47.1286 19.4474 46.5175 18.3809C46.3403 18.6142 46.2063 18.8711 46.1158 19.1515C45.7562 19.3075 45.4118 19.4854 45.0827 19.685C45.5238 19.2096 45.9447 18.7156 46.3453 18.2031C45.7431 17.0972 45.2839 15.9314 44.968 14.7056C44.9396 14.5618 44.863 14.4828 44.7384 14.4685C44.7511 14.3954 44.7894 14.3361 44.8532 14.2907C44.0049 10.9428 44.3109 7.7221 45.7714 4.62838C46.6114 2.97215 47.5105 1.35189 48.4688 -0.232422C49.1286 0.933506 49.8173 2.07955 50.5348 3.20571C50.6668 3.47293 50.7052 3.74952 50.6496 4.0356C49.5137 5.59224 48.7485 7.3311 48.354 9.25207C48.1094 11.2149 48.339 13.1118 49.0427 14.9428C49.1361 15.2601 49.3083 15.4972 49.5592 15.6541Z" fill="#1B91CF"/>
</g>
<g id="Group_2">
<path id="Vector_2" fill-rule="evenodd" clip-rule="evenodd" d="M45.7716 4.62891C44.3111 7.72263 44.0051 10.9433 44.8534 14.2912C44.7895 14.3366 44.7513 14.3959 44.7386 14.4691C44.636 14.8119 44.4828 15.1281 44.2794 15.4175C44.0878 15.3878 43.9156 15.3087 43.7629 15.1804C43.4739 14.5411 43.2635 13.8693 43.1316 13.1649C43.2685 12.3192 43.2685 11.4695 43.1316 10.616C43.1295 10.2604 43.206 9.92457 43.3612 9.60826C43.2846 9.56878 43.2082 9.52919 43.1316 9.48971C43.2036 9.38099 43.2419 9.26243 43.2464 9.13404C44.0306 7.59257 44.8723 6.09094 45.7716 4.62891Z" fill="#1B91CF"/>
</g>
<g id="Group_3">
<path id="Vector_3" fill-rule="evenodd" clip-rule="evenodd" d="M48.6408 21.7004C46.4316 24.2839 46.2212 27.0503 48.0095 29.9994C48.3582 30.3395 48.6834 30.6952 48.9851 31.0664C47.792 32.0474 46.4146 32.4822 44.853 32.3705C44.2052 31.5613 43.7269 30.6525 43.4183 29.6437C42.2537 25.9982 42.8084 22.6786 45.0826 19.685C45.4117 19.4853 45.756 19.3075 46.1156 19.1515C46.2062 18.8711 46.3401 18.6142 46.5174 18.3809C47.1284 19.4474 47.8745 20.3958 48.7556 21.2262C48.67 21.3727 48.6317 21.5309 48.6408 21.7004Z" fill="#1B91CF"/>
</g>
<g id="Group_4">
<path id="Vector_4" fill-rule="evenodd" clip-rule="evenodd" d="M86.7481 33.675C86.0581 33.7107 85.3694 33.77 84.682 33.8529C84.835 33.9319 84.835 34.0109 84.682 34.09C84.4142 34.1295 84.1463 34.1691 83.8785 34.2085C83.1552 34.6218 82.4283 35.0368 81.6977 35.4534C81.596 35.5512 81.5578 35.6697 81.5829 35.809C81.4622 35.7914 81.3474 35.8111 81.2386 35.8683C81.2768 35.9078 81.3151 35.9474 81.3534 35.9869C81.095 36.0756 80.942 36.2534 80.8942 36.5204C78.6697 36.076 76.4505 35.582 74.2369 35.0384C72.9361 34.9594 71.6352 34.9594 70.3344 35.0384C67.3026 35.7646 65.6956 37.7406 65.5136 40.9662C65.489 41.4562 65.5655 41.9107 65.7432 42.3296C65.7485 42.6934 65.8059 43.049 65.9153 43.3966C66.3842 44.2751 66.9391 45.0852 67.5796 45.827C67.7547 45.9467 67.946 46.0059 68.1536 46.0049C68.1437 46.123 68.182 46.2217 68.2683 46.3013C70.0306 47.3016 71.8671 47.4597 73.7778 46.7755C75.4008 46.0283 76.4721 44.7835 76.9917 43.041C77.4314 41.9377 78.0244 40.9102 78.7708 39.9585C78.827 39.8052 78.8462 39.6471 78.8282 39.4843C78.9341 39.5795 79.0489 39.5993 79.1725 39.5436C79.9525 38.5484 80.8707 37.7185 81.9273 37.0539C82.0136 36.9743 82.0519 36.8756 82.042 36.7575C84.9083 35.0201 88.0074 34.3483 91.3393 34.742C93.1564 35.0463 94.9547 35.4415 96.734 35.9276C95.7989 37.0714 94.8424 38.1977 93.8645 39.3064C92.8203 39.2052 91.7873 39.0076 90.7654 38.7137C87.5387 38.3361 84.7648 39.3042 82.4438 41.6183C82.3898 41.746 82.409 41.8645 82.5012 41.974C82.3482 41.974 82.195 41.974 82.042 41.974C81.3249 42.8106 80.751 43.838 80.3203 45.0564C80.362 45.1374 80.4002 45.2165 80.4351 45.2935C79.6439 46.6476 78.6875 47.8924 77.5656 49.0281C74.2531 51.4713 70.7331 51.8665 67.0057 50.2136C63.06 47.8666 61.3192 44.3297 61.7832 39.6028C62.5679 35.7491 64.7296 33.0815 68.2683 31.6003C70.0376 30.8581 71.8741 30.5814 73.7778 30.7704C78.1183 31.7237 82.4416 32.6918 86.7481 33.675Z" fill="#1B91CF"/>
</g>
<g id="Group_5">
<path id="Vector_5" fill-rule="evenodd" clip-rule="evenodd" d="M6.40147 34.5039C6.89882 34.583 7.39628 34.6619 7.89362 34.741C7.28023 34.7607 6.66811 34.7409 6.05713 34.6817C6.17501 34.6209 6.28979 34.5616 6.40147 34.5039Z" fill="#1B91CF"/>
</g>
<g id="Group_6">
<path id="Vector_6" fill-rule="evenodd" clip-rule="evenodd" d="M86.7481 33.6758C88.2995 33.9977 89.8299 34.3533 91.3393 34.7428C88.0075 34.3491 84.9084 35.0208 82.0421 36.7582C81.6358 36.7282 81.2532 36.6493 80.8943 36.5211C80.942 36.2541 81.095 36.0763 81.3534 35.9876C81.3152 35.9481 81.2769 35.9085 81.2386 35.8691C81.3474 35.8118 81.4622 35.7921 81.583 35.8098C81.5578 35.6705 81.5961 35.5519 81.6978 35.4541C82.4283 35.0375 83.1552 34.6226 83.8786 34.2093C84.1464 34.1698 84.4143 34.1302 84.6821 34.0907C84.8351 34.0117 84.8351 33.9327 84.6821 33.8536C85.3695 33.7707 86.0582 33.7115 86.7481 33.6758Z" fill="#1B91CF"/>
</g>
<g id="Group_7">
<path id="Vector_7" fill-rule="evenodd" clip-rule="evenodd" d="M15.1248 39.6022C15.2962 39.7142 15.4684 39.8328 15.6413 39.9579C16.1927 39.8014 16.7475 39.663 17.3057 39.5429C17.7373 39.2151 18.1965 38.9385 18.683 38.713C18.7693 38.6335 18.8077 38.5347 18.7978 38.4166C18.8686 38.4298 18.926 38.4693 18.97 38.5352C20.4136 37.5743 22.0013 37.1001 23.7334 37.1125C28.2615 37.307 31.3797 39.5595 33.088 43.8702C34.2641 48.1442 33.2884 51.7996 30.1611 54.8367C27.0231 57.2867 23.5797 57.84 19.8308 56.4965C18.4154 55.9535 17.1336 55.1828 15.9857 54.1846C13.2131 50.9895 10.4392 47.7885 7.66406 44.5816C7.95135 44.5123 8.23831 44.4332 8.52491 44.3444C10.1222 45.2352 11.8247 45.5512 13.6327 45.2929C15.2999 47.153 16.945 49.0301 18.5682 50.9243C19.6277 51.8865 20.8137 52.6373 22.1265 53.1769C25.2572 53.8319 27.5912 52.7254 29.1281 49.8573C29.0599 49.8023 28.9833 49.7825 28.8985 49.798C28.9799 49.6909 29.0947 49.6514 29.2429 49.6795C29.753 48.2442 29.8295 46.782 29.4724 45.2929C29.3576 45.2929 29.2429 45.2929 29.1281 45.2929C29.2441 45.0674 29.2633 44.8303 29.1855 44.5816C27.1392 41.1157 24.327 40.2265 20.7491 41.914C20.5697 42.004 20.4549 42.1424 20.4047 42.329C19.8736 42.506 19.3762 42.7628 18.9126 43.0996C18.3005 43.2972 17.6882 43.4948 17.0761 43.6924C16.9572 43.9029 16.9572 44.1203 17.0761 44.3444C16.9226 44.2478 16.8078 44.1095 16.7317 43.9295C16.617 43.9097 16.5022 43.89 16.3874 43.8702C15.1513 44.0411 13.9271 44.1596 12.7144 44.2259C10.5648 44.0234 8.53697 43.4108 6.63103 42.3883C6.2192 41.9223 5.72185 41.6062 5.13888 41.4398C5.23495 41.32 5.27317 41.1816 5.25366 41.0249C5.08401 41.0559 4.93099 41.0165 4.79454 40.9063C4.9196 40.7748 4.9196 40.6563 4.79454 40.5507C4.67771 40.6328 4.56293 40.7118 4.45019 40.7878C3.09093 39.2851 1.75183 37.7635 0.432861 36.2234C0.568521 36.0177 0.759815 35.8991 1.00677 35.8677C2.21734 35.5958 3.42254 35.2994 4.62236 34.9785C5.55645 36.1411 6.57043 37.2278 7.66406 38.2388C9.97265 39.9547 12.536 40.5475 15.3544 40.0172C15.262 39.8852 15.1854 39.747 15.1248 39.6022Z" fill="#1B91CF"/>
</g>
<g id="Group_8">
<path id="Vector_8" fill-rule="evenodd" clip-rule="evenodd" d="M78.8282 39.4855C78.8462 39.6483 78.827 39.8065 78.7708 39.9598C78.0244 40.9114 77.4314 41.9389 76.9917 43.0422C74.5255 41.6418 72.1534 41.7999 69.8753 43.5165C69.1581 44.2495 68.5842 45.0794 68.1536 46.0061C67.946 46.0072 67.7547 45.9479 67.5797 45.8283C66.9391 45.0865 66.3842 44.2764 65.9153 43.3979C65.8059 43.0503 65.7486 42.6946 65.7432 42.3309C67.296 40.0053 69.4386 38.6024 72.1709 38.1222C74.5614 37.7757 76.7805 38.2302 78.8282 39.4855Z" fill="#1B91CF"/>
</g>
<g id="Group_9">
<path id="Vector_9" fill-rule="evenodd" clip-rule="evenodd" d="M50.592 37.4682C50.1092 37.4489 49.6309 37.4885 49.1573 37.5868C48.8182 37.5756 48.799 37.5163 49.0999 37.4089C48.8512 37.3891 48.6025 37.3695 48.3538 37.3497C47.4935 37.4434 46.6327 37.5225 45.7712 37.5868C47.3692 37.1604 48.9762 37.121 50.592 37.4682Z" fill="#1B91CF"/>
</g>
<g id="Group_10">
<path id="Vector_10" fill-rule="evenodd" clip-rule="evenodd" d="M12.7144 44.226C13.0205 44.5817 13.3265 44.9374 13.6327 45.293C11.8248 45.5514 10.1222 45.2353 8.52492 44.3446C8.23831 44.4334 7.95136 44.5125 7.66406 44.5817C6.55 43.3521 5.47875 42.0876 4.4502 40.7879C4.56293 40.7119 4.67771 40.6329 4.79454 40.5508C4.9196 40.6564 4.9196 40.775 4.79454 40.9064C4.93099 41.0166 5.08402 41.0561 5.25366 41.025C5.27317 41.1817 5.23495 41.3201 5.13888 41.44C5.72185 41.6063 6.2192 41.9225 6.63103 42.3884C8.53697 43.4109 10.5648 44.0235 12.7144 44.226Z" fill="#1B91CF"/>
</g>
<g id="Group_11">
<path id="Vector_11" fill-rule="evenodd" clip-rule="evenodd" d="M20.4044 42.3301C20.6995 42.8997 21.0247 43.453 21.38 43.9899C23.6442 46.4467 26.2268 46.8814 29.1278 45.294C29.2425 45.294 29.3573 45.294 29.4721 45.294C29.8292 46.783 29.7526 48.2453 29.2425 49.6806C29.0943 49.6525 28.9796 49.6919 28.8982 49.7991C24.1043 51.0143 20.2974 49.5522 17.4775 45.4125C17.2777 45.0795 17.1437 44.7238 17.0758 44.3455C16.9568 44.1213 16.9568 43.904 17.0758 43.6935C17.6879 43.4958 18.3001 43.2983 18.9123 43.1007C19.3759 42.7639 19.8733 42.5071 20.4044 42.3301Z" fill="#1B91CF"/>
</g>
<g id="Group 1261153253">
<g id="Group_12">
<path id="Vector_12" fill-rule="evenodd" clip-rule="evenodd" d="M43.361 44.2266C43.514 46.2207 43.5906 48.2559 43.5906 50.3322C43.5524 52.3675 43.514 54.4026 43.4758 56.4378C43.361 52.3682 43.3228 48.2978 43.361 44.2266Z" fill="#1B91CF"/>
</g>
<g id="Group_13">
<path id="Vector_13" fill-rule="evenodd" clip-rule="evenodd" d="M42.4426 44.4643C42.3661 47.3887 42.2896 50.313 42.2131 53.2374C42.1748 50.2724 42.2131 47.3085 42.3278 44.3457C42.3975 44.3604 42.4357 44.3999 42.4426 44.4643Z" fill="#1B91CF"/>
</g>
<g id="Group_14">
<path id="Vector_14" fill-rule="evenodd" clip-rule="evenodd" d="M42.4425 44.4629C42.4807 47.4673 42.4425 50.4707 42.3277 53.4732C42.2361 53.419 42.1979 53.3399 42.2129 53.236C42.2895 50.3116 42.3659 47.3873 42.4425 44.4629Z" fill="#1B91CF"/>
</g>
<g id="Group_15">
<path id="Vector_15" fill-rule="evenodd" clip-rule="evenodd" d="M42.7868 44.2266C42.9398 46.1218 43.0162 48.0582 43.0164 50.0358C42.9781 51.9722 42.9398 53.9087 42.9016 55.8451C42.7868 51.973 42.7486 48.1001 42.7868 44.2266Z" fill="#1B91CF"/>
</g>
<g id="Group_16">
<path id="Vector_16" fill-rule="evenodd" clip-rule="evenodd" d="M43.9342 44.3438C44.0872 46.3577 44.1638 48.4126 44.1638 50.5087C44.1822 52.6206 44.1248 54.7152 43.9916 56.7921C43.9342 52.6429 43.915 48.4935 43.9342 44.3438Z" fill="#1B91CF"/>
</g>
<g id="Group_17">
<path id="Vector_17" fill-rule="evenodd" clip-rule="evenodd" d="M44.3942 44.7012C44.5472 46.7744 44.6238 48.8887 44.6238 51.0439C44.5856 53.1581 44.5472 55.2725 44.509 57.3867C44.3942 53.159 44.356 48.9304 44.3942 44.7012Z" fill="#1B91CF"/>
</g>
<g id="Group_18">
<path id="Vector_18" fill-rule="evenodd" clip-rule="evenodd" d="M44.9677 44.9375C45.1207 47.169 45.1973 49.4412 45.1973 51.7545C45.159 54.0268 45.1207 56.2991 45.0825 58.5715C44.9677 54.0274 44.9295 49.4828 44.9677 44.9375Z" fill="#1B91CF"/>
</g>
<g id="Group_19">
<path id="Vector_19" fill-rule="evenodd" clip-rule="evenodd" d="M45.5414 45.293C45.6944 47.5639 45.771 49.8758 45.771 52.2285C45.7328 54.5403 45.6944 56.8522 45.6562 59.164C45.5414 54.5411 45.5032 49.9174 45.5414 45.293Z" fill="#1B91CF"/>
</g>
<g id="Group_20">
<path id="Vector_20" fill-rule="evenodd" clip-rule="evenodd" d="M41.6391 44.582C41.792 45.9036 41.8685 47.267 41.8686 48.6722C41.8304 50.0356 41.7921 51.399 41.7539 52.7624C41.6391 50.0368 41.6009 47.31 41.6391 44.582Z" fill="#1B91CF"/>
</g>
<g id="Group_21">
<path id="Vector_21" fill-rule="evenodd" clip-rule="evenodd" d="M46.1159 45.5312C46.2689 47.9801 46.3455 50.4698 46.3455 53.0003C46.3072 55.49 46.2689 57.9796 46.2307 60.4693C46.1159 55.4906 46.0777 50.5112 46.1159 45.5312Z" fill="#1B91CF"/>
</g>
<g id="Group_22">
<path id="Vector_22" fill-rule="evenodd" clip-rule="evenodd" d="M41.1792 46.0039C41.3315 48.1582 41.3315 50.3317 41.1792 52.5245C41.0291 50.3469 41.0291 48.1734 41.1792 46.0039Z" fill="#1B91CF"/>
</g>
<g id="Group_23">
<path id="Vector_23" fill-rule="evenodd" clip-rule="evenodd" d="M39.458 47.1914C39.6096 47.5587 39.6862 47.9736 39.6875 48.4362C39.6493 48.8512 39.611 49.2661 39.5728 49.6811C39.4583 48.855 39.4201 48.0251 39.458 47.1914Z" fill="#1B91CF"/>
</g>
<g id="Group_24">
<path id="Vector_24" fill-rule="evenodd" clip-rule="evenodd" d="M40.2619 46.9535C40.0353 48.0929 39.9588 49.2785 40.0323 50.5102C39.9182 49.3065 39.8799 48.0814 39.9176 46.8349C40.0657 46.8068 40.1805 46.8463 40.2619 46.9535Z" fill="#1B91CF"/>
</g>
<g id="Group_25">
<path id="Vector_25" fill-rule="evenodd" clip-rule="evenodd" d="M40.4908 46.4785C40.6055 46.4785 40.7203 46.4785 40.8351 46.4785C40.8903 48.1176 40.8329 49.7379 40.6629 51.3393C40.4929 49.7379 40.4356 48.1176 40.4908 46.4785Z" fill="#1B91CF"/>
</g>
<g id="Group_26">
<path id="Vector_26" fill-rule="evenodd" clip-rule="evenodd" d="M46.6894 46.123C46.8424 48.4336 46.9189 50.7849 46.9189 53.1771C46.8807 55.5285 46.8424 57.8799 46.8042 60.2312C46.6894 55.5292 46.6512 50.8264 46.6894 46.123Z" fill="#1B91CF"/>
</g>
<g id="Group_27">
<path id="Vector_27" fill-rule="evenodd" clip-rule="evenodd" d="M47.2634 46.3613C47.3342 46.3745 47.3916 46.414 47.4355 46.4799C47.5311 50.8275 47.5121 55.1746 47.3781 59.5211C47.2634 55.1352 47.2251 50.7486 47.2634 46.3613Z" fill="#1B91CF"/>
</g>
<g id="Group_28">
<path id="Vector_28" fill-rule="evenodd" clip-rule="evenodd" d="M38.7695 47.1914C38.8843 47.1914 38.999 47.1914 39.1138 47.1914C39.1138 47.7051 39.1138 48.2189 39.1138 48.7326C38.383 48.6885 38.1343 48.2933 38.3677 47.5471C38.542 47.4685 38.6759 47.3499 38.7695 47.1914Z" fill="#1B91CF"/>
</g>
<g id="Group_29">
<path id="Vector_29" fill-rule="evenodd" clip-rule="evenodd" d="M40.2617 46.9531C40.3353 48.1848 40.2587 49.3704 40.0322 50.5098C39.9586 49.2781 40.0352 48.0926 40.2617 46.9531Z" fill="#1B91CF"/>
</g>
<g id="Group_30">
<path id="Vector_30" fill-rule="evenodd" clip-rule="evenodd" d="M47.7226 46.8359C47.8756 48.9091 47.9521 51.0235 47.9521 53.1787C47.9139 55.2929 47.8756 57.4072 47.8374 59.5214C47.7226 55.2937 47.6844 51.0652 47.7226 46.8359Z" fill="#1B91CF"/>
</g>
<g id="Group_31">
<path id="Vector_31" fill-rule="evenodd" clip-rule="evenodd" d="M48.2963 47.1914C48.4493 49.2053 48.5259 51.2603 48.5259 53.3563C48.4877 55.4113 48.4493 57.4663 48.4111 59.5212C48.2963 55.4121 48.2581 51.3021 48.2963 47.1914Z" fill="#1B91CF"/>
</g>
<g id="Group_32">
<path id="Vector_32" fill-rule="evenodd" clip-rule="evenodd" d="M49.0996 47.308C49.023 51.3784 48.9466 55.4489 48.87 59.5193C48.8318 55.4086 48.87 51.2986 48.9848 47.1895C49.0545 47.2042 49.0927 47.2436 49.0996 47.308Z" fill="#1B91CF"/>
</g>
<g id="Group_33">
<path id="Vector_33" fill-rule="evenodd" clip-rule="evenodd" d="M49.0997 47.3086C49.1379 51.4193 49.0997 55.5293 48.9849 59.6384C48.9152 59.6237 48.877 59.5842 48.8701 59.5199C48.9467 55.4495 49.0231 51.379 49.0997 47.3086Z" fill="#1B91CF"/>
</g>
<g id="Group_34">
<path id="Vector_34" fill-rule="evenodd" clip-rule="evenodd" d="M49.444 47.3086C49.597 49.3225 49.6736 51.3774 49.6736 53.4735C49.6354 55.5284 49.597 57.5835 49.5588 59.6384C49.444 55.5293 49.4058 51.4193 49.444 47.3086Z" fill="#1B91CF"/>
</g>
<g id="Group_35">
<path id="Vector_35" fill-rule="evenodd" clip-rule="evenodd" d="M50.018 47.3086C50.171 49.3423 50.2476 51.417 50.2476 53.5328C50.2093 55.6075 50.171 57.6823 50.1328 59.757C50.018 55.6082 49.9798 51.4588 50.018 47.3086Z" fill="#1B91CF"/>
</g>
<g id="Group_36">
<path id="Vector_36" fill-rule="evenodd" clip-rule="evenodd" d="M50.592 47.3086C50.745 49.3818 50.8215 51.4961 50.8215 53.6513C50.7833 55.7656 50.745 57.8799 50.7067 59.9941C50.592 55.7664 50.5537 51.5378 50.592 47.3086Z" fill="#1B91CF"/>
</g>
<g id="Group_37">
<path id="Vector_37" fill-rule="evenodd" clip-rule="evenodd" d="M51.1655 47.9023C51.2801 51.6759 51.3184 55.4697 51.2803 59.2837C51.2734 59.3481 51.2352 59.3876 51.1655 59.4023C51.0129 55.5496 51.0129 51.7162 51.1655 47.9023Z" fill="#1B91CF"/>
</g>
<g id="Group_38">
<path id="Vector_38" fill-rule="evenodd" clip-rule="evenodd" d="M51.1658 47.9018C51.1727 47.8374 51.2109 47.7979 51.2806 47.7832C51.4332 51.6359 51.4332 55.4693 51.2806 59.2831C51.3187 55.4691 51.2803 51.6753 51.1658 47.9018Z" fill="#1B91CF"/>
</g>
<g id="Group_39">
<path id="Vector_39" fill-rule="evenodd" clip-rule="evenodd" d="M51.6252 47.9023C51.7782 49.6789 51.8546 51.4967 51.8547 53.3559C51.8165 55.1737 51.7782 56.9917 51.74 58.8095C51.6252 55.1747 51.5869 51.5389 51.6252 47.9023Z" fill="#1B91CF"/>
</g>
<g id="Group_40">
<path id="Vector_40" fill-rule="evenodd" clip-rule="evenodd" d="M52.1989 48.377C52.3519 50.015 52.4283 51.6946 52.4285 53.4156C52.3902 55.0952 52.3519 56.7746 52.3137 58.4542C52.1989 55.0961 52.1607 51.737 52.1989 48.377Z" fill="#1B91CF"/>
</g>
<g id="Group_41">
<path id="Vector_41" fill-rule="evenodd" clip-rule="evenodd" d="M52.7726 49.2051C52.9255 50.6651 53.0021 52.1668 53.0022 53.7102C52.964 55.212 52.9256 56.7136 52.8874 58.2153C52.7726 55.2129 52.7344 52.2095 52.7726 49.2051Z" fill="#1B91CF"/>
</g>
<g id="Group_42">
<path id="Vector_42" fill-rule="evenodd" clip-rule="evenodd" d="M53.3466 49.6797C53.4995 51.0408 53.5761 52.4437 53.5762 53.8884C53.5379 55.2913 53.4996 56.6943 53.4614 58.0972C53.3466 55.2925 53.3084 52.4866 53.3466 49.6797Z" fill="#1B91CF"/>
</g>
<g id="Group_43">
<path id="Vector_43" fill-rule="evenodd" clip-rule="evenodd" d="M53.9206 51.1035C54.0735 52.2271 54.15 53.3928 54.1501 54.6009C54.1119 55.7667 54.0736 56.9326 54.0354 58.0983C53.9206 55.7681 53.8824 53.4365 53.9206 51.1035Z" fill="#1B91CF"/>
</g>
<g id="Group_44">
<path id="Vector_44" fill-rule="evenodd" clip-rule="evenodd" d="M54.3795 52.0508C54.5323 52.9959 54.6089 53.984 54.6091 55.0147C54.5709 56.0026 54.5326 56.9907 54.4943 57.9786C54.3797 56.0043 54.3413 54.0283 54.3795 52.0508Z" fill="#1B91CF"/>
</g>
<g id="Group_45">
<path id="Vector_45" fill-rule="evenodd" clip-rule="evenodd" d="M54.954 52.4082C55.1068 53.2938 55.1833 54.2226 55.1836 55.1943C55.1454 56.1229 55.107 57.0517 55.0688 57.9803C54.9541 56.1247 54.9158 54.2673 54.954 52.4082Z" fill="#1B91CF"/>
</g>
<g id="Group_46">
<path id="Vector_46" fill-rule="evenodd" clip-rule="evenodd" d="M55.5275 53.1191C55.6801 53.846 55.7567 54.6166 55.757 55.431C55.7188 56.2016 55.6805 56.9722 55.6422 57.7428C55.5276 56.2036 55.4893 54.6624 55.5275 53.1191Z" fill="#1B91CF"/>
</g>
<g id="Group_47">
<path id="Vector_47" fill-rule="evenodd" clip-rule="evenodd" d="M56.1014 53.5918C56.254 54.2192 56.3305 54.8909 56.331 55.6073C56.2928 56.2791 56.2544 56.9508 56.2162 57.6227C56.1015 56.2814 56.0633 54.9378 56.1014 53.5918Z" fill="#1B91CF"/>
</g>
<g id="Group_48">
<path id="Vector_48" fill-rule="evenodd" clip-rule="evenodd" d="M56.6747 53.7109C56.8271 54.2786 56.9037 54.891 56.9042 55.5486C56.866 56.1611 56.8277 56.7736 56.7894 57.3862C56.6748 56.1636 56.6366 54.9386 56.6747 53.7109Z" fill="#1B91CF"/>
</g>
<g id="Group_49">
<path id="Vector_49" fill-rule="evenodd" clip-rule="evenodd" d="M57.2493 53.7109C57.1759 54.9034 57.2524 56.0495 57.4789 57.1491C57.3975 57.2562 57.2827 57.2957 57.1346 57.2676C57.097 56.0606 57.1352 54.875 57.2493 53.7109Z" fill="#1B91CF"/>
</g>
<g id="Group_50">
<path id="Vector_50" fill-rule="evenodd" clip-rule="evenodd" d="M57.2494 53.7109C57.4759 54.8105 57.5524 55.9566 57.479 57.1491C57.2525 56.0495 57.1759 54.9034 57.2494 53.7109Z" fill="#1B91CF"/>
</g>
<g id="Group_51">
<path id="Vector_51" fill-rule="evenodd" clip-rule="evenodd" d="M58.512 53.9486C58.359 54.8576 58.359 55.7665 58.512 56.6754C58.5051 56.7398 58.4669 56.7793 58.3972 56.794C58.2442 55.8061 58.2442 54.818 58.3972 53.8301C58.4669 53.8448 58.5051 53.8843 58.512 53.9486Z" fill="#1B91CF"/>
</g>
<g id="Group_52">
<path id="Vector_52" fill-rule="evenodd" clip-rule="evenodd" d="M58.5112 53.9473C58.9238 54.0613 59.115 54.3379 59.0851 54.7772C58.9366 55.4343 58.7454 56.0666 58.5112 56.6741C58.3582 55.7651 58.3582 54.8562 58.5112 53.9473Z" fill="#1B91CF"/>
</g>
</g>
<g id="Group_53">
<path id="Vector_53" fill-rule="evenodd" clip-rule="evenodd" d="M77.4511 84.4182C77.216 83.3014 76.6421 82.3925 75.7294 81.6914C75.7055 81.1531 75.4376 80.837 74.9259 80.743C74.7476 80.5337 74.7094 80.3164 74.8111 80.0909C74.2972 79.7592 73.7807 79.4234 73.2616 79.0832C73.2345 79.2752 73.1389 79.3937 72.9746 79.4389C72.7076 77.1532 72.4971 74.8611 72.3433 72.5626C72.0785 70.6338 71.4472 68.8555 70.4494 67.2276C68.2381 64.9178 65.7129 64.4633 62.8739 65.8642C62.9377 65.9096 62.9759 65.9689 62.9887 66.042C62.3483 66.1281 61.8318 66.4443 61.4391 66.9905C61.1742 67.4025 60.8873 67.7976 60.5783 68.1761C60.4509 68.6541 60.2595 69.0887 60.0044 69.4802C59.8326 69.9216 59.7561 70.3958 59.7748 70.9028C59.7752 71.2413 59.8134 71.5575 59.8896 71.8513C60.4686 75.2557 62.4198 77.0736 65.7434 77.3049C65.7162 77.1518 65.7544 77.0333 65.8582 76.9492C65.8582 77.0678 65.8582 77.1863 65.8582 77.3049C67.0058 77.3984 68.1154 77.6553 69.1869 78.0755C69.3208 78.1348 69.4164 78.2335 69.4738 78.3719C69.4979 78.1872 69.5553 78.0291 69.646 77.8977C69.6159 78.0729 69.6541 78.2309 69.7608 78.3719C70.9176 78.8766 71.9698 79.5484 72.9172 80.3873C72.9739 80.1936 72.993 79.996 72.9746 79.7945C73.0767 80.4972 73.4593 81.0109 74.1224 81.3358C74.8912 82.2884 75.6181 83.2763 76.3033 84.2997C76.8119 85.3691 77.2518 86.4755 77.6233 87.6193C77.68 87.4255 77.699 87.2279 77.6806 87.0265C77.9361 89.461 78.2039 91.9112 78.4841 94.377C77.0818 93.8941 75.7045 93.3408 74.352 92.7172C74.4074 89.8269 73.623 87.2187 71.999 84.8925C71.0661 83.6513 69.8992 82.7423 68.4982 82.1657C67.9352 81.9161 67.3613 81.6592 66.7765 81.3951C66.1267 81.32 65.4762 81.2607 64.8252 81.2172C64.8524 81.3703 64.8142 81.4888 64.7104 81.5729C64.7104 81.4149 64.7104 81.2567 64.7104 81.0987C60.3763 80.5147 57.5641 78.0646 56.274 73.7482C55.3226 68.2643 57.2548 64.2926 62.0704 61.8333C67.2223 60.2923 71.3352 61.7743 74.4094 66.2792C75.1005 67.4302 75.6362 68.6554 76.0163 69.9544C76.5325 74.7724 77.0108 79.5936 77.4511 84.4182Z" fill="#1B91CF"/>
</g>
<g id="Group_54">
<path id="Vector_54" fill-rule="evenodd" clip-rule="evenodd" d="M28.2099 90.2265C28.1475 90.2194 28.1093 90.1799 28.0951 90.1079C28.5372 89.6616 28.9772 89.2268 29.415 88.8038C29.6307 88.5635 29.7647 88.2869 29.8168 87.9739C29.9316 87.9739 30.0463 87.9739 30.1611 87.9739C30.1431 87.8112 30.1623 87.653 30.2185 87.4997C30.764 86.6737 31.1083 85.7649 31.2515 84.7729C31.5111 84.5856 31.7597 84.3881 31.9976 84.1801C34.1159 83.1063 36.2584 82.0589 38.4254 81.0384C40.2055 80.0301 41.4489 78.5481 42.1557 76.5925C42.526 74.6598 42.1817 72.8815 41.1227 71.2575C40.881 70.9471 40.594 70.71 40.2618 70.5462C39.9785 70.1593 39.6341 69.8233 39.2288 69.5385C38.8484 69.5315 38.5231 69.3932 38.2532 69.1235C37.5582 68.9303 36.8503 68.8513 36.1297 68.8864C33.1522 69.1503 31.2583 70.7706 30.4481 73.7472C30.3579 74.7454 30.4153 75.7334 30.6202 76.7111C30.7733 76.7111 30.9264 76.7111 31.0794 76.7111C30.9292 76.7979 30.7761 76.8968 30.6202 77.0075C30.8809 77.372 31.0148 77.787 31.022 78.2523C31.0794 79.0417 31.0984 79.8321 31.0794 80.6234C31.4619 80.6234 31.8446 80.6234 32.2272 80.6234C31.8284 80.745 31.4076 80.824 30.9646 80.8606C30.869 82.2442 30.6012 83.5878 30.1611 84.8915C28.9462 87.7635 27.1097 90.0951 24.6516 91.8863C22.7937 92.8691 20.8807 93.7385 18.9126 94.4945C18.9986 92.9539 19.0751 91.4126 19.1422 89.8708C23.5015 88.6502 26.1797 85.7652 27.1768 81.2162C27.1244 81.1216 27.0478 81.0821 26.9473 81.0977C27.0588 80.9911 27.1353 80.8527 27.1768 80.6827C27.3967 79.4278 27.282 78.2225 26.8325 77.0668C26.0391 71.5317 28.1052 67.6391 33.0306 65.389C37.6459 63.977 41.4145 65.2218 44.3366 69.1235C46.5163 72.8917 46.5546 76.6855 44.4513 80.5049C43.2703 82.4755 41.6825 83.997 39.6879 85.0693C35.8543 86.7776 32.0283 88.4966 28.2099 90.2265Z" fill="#1B91CF"/>
</g>
<g id="Group_55">
<path id="Vector_55" fill-rule="evenodd" clip-rule="evenodd" d="M62.9882 66.041C63.5063 66.1502 64.0038 66.328 64.4804 66.5745C68.6851 69.1164 70.4068 72.8905 69.6455 77.8966C69.5548 78.0281 69.4974 78.1861 69.4733 78.3709C69.4159 78.2325 69.3203 78.1337 69.1864 78.0745C68.1149 77.6543 67.0053 77.3974 65.8577 77.3038C65.8577 77.1853 65.8577 77.0667 65.8577 76.9482C66.2068 72.9218 64.4851 70.4716 60.6926 69.5977C60.49 69.4838 60.2604 69.4442 60.0039 69.4791C60.2591 69.0877 60.4504 68.653 60.5778 68.175C60.8868 67.7966 61.1738 67.4014 61.4387 66.9895C61.8313 66.4433 62.3478 66.1271 62.9882 66.041Z" fill="#1B91CF"/>
</g>
<g id="Group_56">
<path id="Vector_56" fill-rule="evenodd" clip-rule="evenodd" d="M36.1298 68.887C36.8504 68.8519 37.5583 68.9309 38.2533 69.1241C38.5233 69.3938 38.8485 69.5321 39.2289 69.5391C39.6342 69.824 39.9786 70.1599 40.262 70.5468C40.1234 75.3186 37.9044 78.5788 33.6047 80.3277C33.1486 80.4495 32.6895 80.5483 32.2273 80.6241C31.8447 80.6241 31.462 80.6241 31.0795 80.6241C31.0985 79.8327 31.0795 79.0423 31.0221 78.2529C31.0149 77.7876 30.881 77.3727 30.6204 77.0081C30.7762 76.8974 30.9294 76.7985 31.0795 76.7117C31.6316 76.6482 32.1673 76.5098 32.6864 76.2968C35.6636 74.7501 36.8114 72.2802 36.1298 68.887Z" fill="#1B91CF"/>
</g>
<g id="Group_57">
<path id="Vector_57" fill-rule="evenodd" clip-rule="evenodd" d="M60.0038 69.4791C60.2603 69.4441 60.4899 69.4837 60.6925 69.5977C60.4324 69.5551 60.222 69.6342 60.0612 69.8348C59.9061 70.4954 59.8487 71.1671 59.889 71.8502C59.8128 71.5564 59.7746 71.2403 59.7742 70.9018C59.7555 70.3947 59.832 69.9205 60.0038 69.4791Z" fill="#1B91CF"/>
</g>
<g id="Group_58">
<path id="Vector_58" fill-rule="evenodd" clip-rule="evenodd" d="M77.4508 84.4171C77.5462 85.2845 77.6228 86.154 77.6804 87.0253C77.6987 87.2267 77.6797 87.4244 77.623 87.6181C77.2516 86.4744 76.8116 85.3679 76.303 84.2985C75.6179 83.2751 74.891 82.2872 74.1222 81.3346C73.4591 81.0098 73.0764 80.4961 72.9744 79.7934C72.9744 79.6748 72.9744 79.5563 72.9744 79.4377C73.1386 79.3925 73.2342 79.274 73.2613 79.082C73.7805 79.4222 74.297 79.758 74.8109 80.0898C74.7092 80.3153 74.7474 80.5326 74.9256 80.7418C75.4373 80.8358 75.7052 81.1519 75.7291 81.6903C76.6418 82.3913 77.2157 83.3003 77.4508 84.4171Z" fill="#1B91CF"/>
</g>
<g id="Group_59">
<path id="Vector_59" fill-rule="evenodd" clip-rule="evenodd" d="M31.9976 84.1797C31.7596 84.3876 31.511 84.5851 31.2515 84.7725C31.1083 85.7644 30.7639 86.6733 30.2185 87.4993C30.1622 87.6526 30.1431 87.8107 30.1611 87.9735C30.0463 87.9735 29.9315 87.9735 29.8168 87.9735C29.7646 88.2865 29.6307 88.5631 29.415 88.8034C28.9771 89.2264 28.5372 89.6611 28.095 90.1075C28.1093 90.1795 28.1475 90.2189 28.2098 90.226C27.0751 90.8683 25.8891 91.4216 24.6516 91.8858C27.1096 90.0947 28.9461 87.763 30.1611 84.891C30.7488 84.5875 31.361 84.3504 31.9976 84.1797Z" fill="#1B91CF"/>
</g>
</g>
<defs>
<clipPath id="clip0_20783_158176">
<rect width="96.8333" height="94.5" fill="white" transform="translate(0.166748)"/>
</clipPath>
</defs>
</svg>
