<svg width="28" height="28" viewBox="0 0 28 28" fill="none" xmlns="http://www.w3.org/2000/svg">
<g id="Layer_3">
<path id="Vector" d="M10.5 25.0827H5.83329C5.05999 25.0819 4.3186 24.7743 3.77179 24.2275C3.22499 23.6807 2.91744 22.9393 2.91663 22.166V17.4994C2.91744 16.7261 3.22499 15.9847 3.77179 15.4379C4.3186 14.891 5.05999 14.5835 5.83329 14.5827H10.5C11.2733 14.5835 12.0147 14.891 12.5615 15.4379C13.1083 15.9847 13.4158 16.7261 13.4166 17.4994V22.166C13.4158 22.9393 13.1083 23.6807 12.5615 24.2275C12.0147 24.7743 11.2733 25.0819 10.5 25.0827ZM5.83329 15.7494C5.36932 15.7499 4.92449 15.9344 4.59642 16.2625C4.26834 16.5906 4.0838 17.0354 4.08329 17.4994V22.166C4.0838 22.63 4.26834 23.0748 4.59642 23.4029C4.92449 23.731 5.36932 23.9155 5.83329 23.916H10.5C10.9639 23.9155 11.4088 23.731 11.7368 23.4029C12.0649 23.0748 12.2495 22.63 12.25 22.166V17.4994C12.2495 17.0354 12.0649 16.5906 11.7368 16.2625C11.4088 15.9344 10.9639 15.7499 10.5 15.7494H5.83329ZM10.5 13.416H5.83329C5.05999 13.4152 4.3186 13.1077 3.77179 12.5608C3.22499 12.014 2.91744 11.2726 2.91663 10.4994V5.83268C2.91744 5.05939 3.22499 4.31799 3.77179 3.77119C4.3186 3.22438 5.05999 2.91683 5.83329 2.91602H10.5C11.2733 2.91683 12.0147 3.22438 12.5615 3.77119C13.1083 4.31799 13.4158 5.05939 13.4166 5.83268V10.4994C13.4158 11.2726 13.1083 12.014 12.5615 12.5608C12.0147 13.1077 11.2733 13.4152 10.5 13.416ZM5.83329 4.08268C5.36932 4.08319 4.92449 4.26773 4.59642 4.59581C4.26834 4.92389 4.0838 5.36871 4.08329 5.83268V10.4994C4.0838 10.9633 4.26834 11.4081 4.59642 11.7362C4.92449 12.0643 5.36932 12.2488 5.83329 12.2494H10.5C10.9639 12.2488 11.4088 12.0643 11.7368 11.7362C12.0649 11.4081 12.2495 10.9633 12.25 10.4994V5.83268C12.2495 5.36871 12.0649 4.92389 11.7368 4.59581C11.4088 4.26773 10.9639 4.08319 10.5 4.08268H5.83329ZM22.1666 25.0827H17.5C16.7267 25.0819 15.9853 24.7743 15.4385 24.2275C14.8917 23.6807 14.5841 22.9393 14.5833 22.166V17.4994C14.5841 16.7261 14.8917 15.9847 15.4385 15.4379C15.9853 14.891 16.7267 14.5835 17.5 14.5827H22.1666C22.9399 14.5835 23.6813 14.891 24.2281 15.4379C24.7749 15.9847 25.0825 16.7261 25.0833 17.4994V22.166C25.0825 22.9393 24.7749 23.6807 24.2281 24.2275C23.6813 24.7743 22.9399 25.0819 22.1666 25.0827ZM17.5 15.7494C17.036 15.7499 16.5912 15.9344 16.2631 16.2625C15.935 16.5906 15.7505 17.0354 15.75 17.4994V22.166C15.7505 22.63 15.935 23.0748 16.2631 23.4029C16.5912 23.731 17.036 23.9155 17.5 23.916H22.1666C22.6306 23.9155 23.0754 23.731 23.4035 23.4029C23.7316 23.0748 23.9161 22.63 23.9166 22.166V17.4994C23.9161 17.0354 23.7316 16.5906 23.4035 16.2625C23.0754 15.9344 22.6306 15.7499 22.1666 15.7494H17.5ZM19.8333 13.416C18.7949 13.416 17.7799 13.1081 16.9165 12.5312C16.0532 11.9544 15.3803 11.1344 14.9829 10.1751C14.5856 9.21579 14.4816 8.16019 14.6842 7.14179C14.8867 6.12339 15.3868 5.18793 16.121 4.45371C16.8552 3.71948 17.7907 3.21947 18.8091 3.0169C19.8275 2.81432 20.8831 2.91829 21.8424 3.31565C22.8017 3.71301 23.6216 4.38592 24.1985 5.24927C24.7754 6.11263 25.0833 7.12767 25.0833 8.16602C25.0818 9.55794 24.5282 10.8924 23.5439 11.8767C22.5597 12.8609 21.2252 13.4145 19.8333 13.416ZM19.8333 4.08268C19.0257 4.08268 18.2362 4.32217 17.5647 4.77085C16.8932 5.21953 16.3698 5.85726 16.0608 6.60339C15.7517 7.34952 15.6709 8.17055 15.8284 8.96264C15.986 9.75473 16.3749 10.4823 16.9459 11.0534C17.517 11.6244 18.2446 12.0133 19.0367 12.1709C19.8288 12.3284 20.6498 12.2476 21.3959 11.9385C22.142 11.6295 22.7798 11.1061 23.2285 10.4346C23.6771 9.7631 23.9166 8.97362 23.9166 8.16602C23.9153 7.08345 23.4847 6.0456 22.7192 5.28011C21.9537 4.51462 20.9159 4.08399 19.8333 4.08268Z" fill="white"/>
</g>
</svg>
