<svg width="24" height="24" viewBox="0 0 24 24" fill="none" xmlns="http://www.w3.org/2000/svg">
<g id="Frame">
<path id="Vector" d="M2 16.909C7.47242 16.9048 12.921 17.5945 18.2021 18.9598C18.9477 19.153 19.6923 18.626 19.6923 17.89V16.909M3.53846 3V3.73206C3.53846 3.92621 3.45742 4.11241 3.31316 4.2497C3.1689 4.38698 2.97324 4.46411 2.76923 4.46411H2M2 4.46411V4.09808C2 3.49194 2.51692 3 3.15385 3H20.4615M2 4.46411V13.2488M20.4615 3V3.73206C20.4615 4.13615 20.8062 4.46411 21.2308 4.46411H22M20.4615 3H20.8462C21.4831 3 22 3.49194 22 4.09808V13.6148C22 14.2209 21.4831 14.7129 20.8462 14.7129H20.4615M2 13.2488V13.6148C2 13.906 2.12157 14.1853 2.33795 14.3913C2.55434 14.5972 2.84783 14.7129 3.15385 14.7129H3.53846M2 13.2488H2.76923C2.97324 13.2488 3.1689 13.3259 3.31316 13.4632C3.45742 13.6005 3.53846 13.7867 3.53846 13.9808V14.7129M20.4615 14.7129V13.9808C20.4615 13.7867 20.5426 13.6005 20.6868 13.4632C20.8311 13.3259 21.0268 13.2488 21.2308 13.2488H22M20.4615 14.7129H3.53846M15.0769 8.85644C15.0769 9.63305 14.7527 10.3779 14.1757 10.927C13.5987 11.4762 12.8161 11.7847 12 11.7847C11.1839 11.7847 10.4013 11.4762 9.82429 10.927C9.24725 10.3779 8.92308 9.63305 8.92308 8.85644C8.92308 8.07983 9.24725 7.33502 9.82429 6.78588C10.4013 6.23673 11.1839 5.92822 12 5.92822C12.8161 5.92822 13.5987 6.23673 14.1757 6.78588C14.7527 7.33502 15.0769 8.07983 15.0769 8.85644ZM18.1538 8.85644H18.1621V8.86425H18.1538V8.85644ZM5.84615 8.85644H5.85436V8.86425H5.84615V8.85644Z" stroke="white" stroke-width="1.5" stroke-linecap="round" stroke-linejoin="round"/>
</g>
</svg>
