<svg width="20" height="20" viewBox="0 0 20 20" fill="none" xmlns="http://www.w3.org/2000/svg">
<g id="Capa_1" clip-path="url(#clip0_24322_511893)">
<g id="Group">
<path id="Vector" d="M10 0C4.50742 0 0 4.50742 0 10C0 15.4926 4.50742 20 10 20C10.3239 20 10.5859 19.7379 10.5859 19.4141C10.5859 19.0902 10.3239 18.8281 10 18.8281C5.15344 18.8281 1.17188 14.8466 1.17188 10C1.17188 5.15344 5.15344 1.17188 10 1.17188C14.8466 1.17188 18.8281 5.15344 18.8281 10C18.8281 10.3239 19.0902 10.5859 19.4141 10.5859C19.7379 10.5859 20 10.3239 20 10C20 4.50742 15.4926 0 10 0Z" fill="#1978A9"/>
<path id="Vector_2" d="M10 4.72656C12.5743 4.72656 14.7407 6.6984 14.9318 9.21609C14.9564 9.53824 15.2259 9.78316 15.5607 9.75566C15.8829 9.73105 16.1249 9.44953 16.1003 9.1268C15.8634 6.00258 13.1838 3.55469 10 3.55469C6.44606 3.55469 3.55469 6.44605 3.55469 10C3.55469 13.1838 6.00258 15.8634 9.1268 16.1003C9.14227 16.1014 9.15711 16.102 9.17199 16.102C9.47528 16.102 9.73219 15.868 9.75563 15.5607C9.7802 15.238 9.53821 14.9564 9.21606 14.9318C6.6984 14.7407 4.72656 12.5743 4.72656 10C4.72656 7.09207 7.09207 4.72656 10 4.72656Z" fill="#30A9E0"/>
<path id="Vector_3" d="M11.2417 8.75773C11.4705 8.9866 11.8419 8.98605 12.0708 8.75832C12.2997 8.52945 12.2997 8.15863 12.0714 7.92918C11.518 7.37531 10.7822 7.07031 10 7.07031C8.38465 7.07031 7.07031 8.38465 7.07031 10C7.07031 10.7822 7.37531 11.518 7.92918 12.0714C8.15863 12.2997 8.52965 12.2995 8.75832 12.0708C8.98664 11.8413 8.98664 11.4705 8.75774 11.2416C8.42531 10.9098 8.24219 10.4692 8.24219 10C8.24219 9.0307 9.0307 8.24219 10 8.24219C10.4692 8.24219 10.9098 8.42531 11.2417 8.75773Z" fill="#1978A9"/>
<path id="Vector_4" d="M16.3864 14.7286L17.3735 13.7416C17.5131 13.602 17.5726 13.4022 17.5331 13.2088C17.4931 13.016 17.3592 12.8558 17.176 12.7831L11.1433 10.3816C10.927 10.2952 10.6787 10.345 10.5122 10.5115C10.3468 10.6768 10.2953 10.9252 10.3823 11.1426L12.7838 17.1754C12.8565 17.3585 13.0167 17.4924 13.2095 17.5324C13.4006 17.5696 13.6021 17.5118 13.7422 17.3728L14.7293 16.3857L18.1713 19.8277C18.4001 20.0565 18.771 20.0565 18.9998 19.8277L19.8284 18.9991C20.0573 18.7702 20.0573 18.3994 19.8284 18.1706L16.3864 14.7286Z" fill="#30A9E0"/>
</g>
</g>
<defs>
<clipPath id="clip0_24322_511893">
<rect width="20" height="20" fill="white"/>
</clipPath>
</defs>
</svg>
