<svg width="28" height="28" viewBox="0 0 28 28" fill="none" xmlns="http://www.w3.org/2000/svg">
<g id="Outline" clip-path="url(#clip0_24499_34472)">
<path id="Vector" d="M13.5625 13.125C13.5622 12.8537 13.4779 12.5891 13.3212 12.3676C13.1646 12.1461 12.9432 11.9785 12.6875 11.8878V8.93125L12.8156 9.05938C12.8977 9.14143 13.009 9.18753 13.125 9.18753C13.2411 9.18753 13.3523 9.14143 13.4344 9.05938C13.5164 8.97733 13.5625 8.86605 13.5625 8.75002C13.5625 8.63398 13.5164 8.5227 13.4344 8.44065L12.5594 7.56565C12.5188 7.52502 12.4705 7.49279 12.4174 7.47081C12.3644 7.44882 12.3075 7.4375 12.25 7.4375C12.1926 7.4375 12.1357 7.44882 12.0826 7.47081C12.0295 7.49279 11.9813 7.52502 11.9406 7.56565L11.0656 8.44065C10.9836 8.5227 10.9375 8.63398 10.9375 8.75002C10.9375 8.86605 10.9836 8.97733 11.0656 9.05938C11.1477 9.14143 11.259 9.18753 11.375 9.18753C11.4911 9.18753 11.6023 9.14143 11.6844 9.05938L11.8125 8.93125V11.8878C11.6282 11.9534 11.4609 12.0592 11.3226 12.1976C11.1842 12.3359 11.0784 12.5032 11.0128 12.6875H5.86875L5.99688 12.5594C6.07893 12.4773 6.12503 12.3661 6.12503 12.25C6.12503 12.134 6.07893 12.0227 5.99688 11.9406C5.91483 11.8586 5.80355 11.8125 5.68752 11.8125C5.57148 11.8125 5.4602 11.8586 5.37815 11.9406L4.50315 12.8156C4.46252 12.8563 4.43029 12.9045 4.4083 12.9576C4.38632 13.0107 4.375 13.0676 4.375 13.125C4.375 13.1825 4.38632 13.2394 4.4083 13.2924C4.43029 13.3455 4.46252 13.3938 4.50315 13.4344L5.37815 14.3094C5.41878 14.35 5.46701 14.3822 5.52009 14.4042C5.57317 14.4262 5.63006 14.4375 5.68752 14.4375C5.74497 14.4375 5.80186 14.4262 5.85494 14.4042C5.90803 14.3822 5.95626 14.35 5.99688 14.3094C6.03751 14.2688 6.06974 14.2205 6.09172 14.1674C6.11371 14.1144 6.12503 14.0575 6.12503 14C6.12503 13.9426 6.11371 13.8857 6.09172 13.8326C6.06974 13.7795 6.03751 13.7313 5.99688 13.6906L5.86875 13.5625H11.0128C11.1161 13.8543 11.3192 14.1002 11.5862 14.2567C11.8532 14.4133 12.1669 14.4704 12.472 14.4181C12.777 14.3657 13.0538 14.2073 13.2533 13.9707C13.4529 13.7341 13.5624 13.4345 13.5625 13.125ZM12.25 13.5625C12.1635 13.5625 12.0789 13.5369 12.007 13.4888C11.935 13.4407 11.8789 13.3724 11.8458 13.2924C11.8127 13.2125 11.804 13.1245 11.8209 13.0397C11.8378 12.9548 11.8795 12.8768 11.9407 12.8157C12.0018 12.7545 12.0798 12.7128 12.1647 12.6959C12.2495 12.679 12.3375 12.6877 12.4174 12.7208C12.4974 12.7539 12.5657 12.81 12.6138 12.882C12.6619 12.9539 12.6875 13.0385 12.6875 13.125C12.6874 13.241 12.6412 13.3522 12.5592 13.4342C12.4772 13.5163 12.366 13.5624 12.25 13.5625Z" fill="white"/>
<path id="Vector_2" d="M26.6875 16.625H24.5V16.1875C24.5003 15.9272 24.4227 15.6728 24.2773 15.4569C24.4253 14.6885 24.4999 13.9076 24.5 13.125C24.5 10.7022 23.7816 8.33378 22.4355 6.31927C21.0895 4.30477 19.1763 2.73466 16.9379 1.80748C14.6995 0.880308 12.2364 0.637717 9.86016 1.11039C7.48389 1.58306 5.30115 2.74976 3.58795 4.46295C1.87476 6.17615 0.708056 8.35889 0.235386 10.7352C-0.237283 13.1114 0.00530751 15.5745 0.932482 17.8129C1.85966 20.0513 3.42977 21.9645 5.44427 23.3105C7.45878 24.6566 9.82719 25.375 12.25 25.375C12.9836 25.3748 13.7156 25.3093 14.4375 25.1791V25.8125C14.4375 25.9285 14.4836 26.0398 14.5657 26.1219C14.6477 26.2039 14.759 26.25 14.875 26.25H27.125C27.241 26.25 27.3523 26.2039 27.4344 26.1219C27.5164 26.0398 27.5625 25.9285 27.5625 25.8125V22.75C27.6785 22.75 27.7898 22.7039 27.8719 22.6219C27.9539 22.5398 28 22.4285 28 22.3125V17.9375C27.9996 17.5895 27.8612 17.2559 27.6152 17.0099C27.3691 16.7638 27.0355 16.6254 26.6875 16.625ZM27.125 17.9375V21.875H25.375V21.4375C25.375 21.3215 25.3289 21.2102 25.2469 21.1282C25.1648 21.0461 25.0535 21 24.9375 21H23.1875C23.0715 21 22.9602 21.0461 22.8782 21.1282C22.7961 21.2102 22.75 21.3215 22.75 21.4375V21.875H19.25V21.4375C19.25 21.3215 19.2039 21.2102 19.1219 21.1282C19.0398 21.0461 18.9285 21 18.8125 21H17.0625C16.9465 21 16.8352 21.0461 16.7532 21.1282C16.6711 21.2102 16.625 21.3215 16.625 21.4375V21.875H14.875V17.9375C14.8751 17.8215 14.9213 17.7103 15.0033 17.6283C15.0853 17.5463 15.1965 17.5001 15.3125 17.5H26.6875C26.8035 17.5001 26.9147 17.5463 26.9967 17.6283C27.0788 17.7103 27.1249 17.8215 27.125 17.9375ZM24.5 21.875V22.75H23.625V21.875H24.5ZM18.375 21.875V22.75H17.5V21.875H18.375ZM12.25 21.875C12.134 21.875 12.0227 21.9211 11.9407 22.0032C11.8586 22.0852 11.8125 22.1965 11.8125 22.3125V22.7396C9.56432 22.6388 7.42322 21.7504 5.76408 20.23L6.06311 19.9309C6.10373 19.8903 6.13596 19.8421 6.15795 19.789C6.17994 19.7359 6.19125 19.679 6.19125 19.6216C6.19125 19.5641 6.17994 19.5072 6.15795 19.4541C6.13596 19.4011 6.10373 19.3528 6.06311 19.3122C6.02248 19.2716 5.97425 19.2393 5.92117 19.2174C5.86809 19.1954 5.8112 19.184 5.75374 19.1841C5.69629 19.1841 5.63939 19.1954 5.58631 19.2174C5.53323 19.2393 5.485 19.2716 5.44437 19.3122L5.14534 19.6112C3.62473 17.952 2.73623 15.8108 2.63541 13.5625H3.06251C3.17855 13.5625 3.28983 13.5164 3.37187 13.4344C3.45392 13.3523 3.50001 13.241 3.50001 13.125C3.50001 13.009 3.45392 12.8977 3.37187 12.8157C3.28983 12.7336 3.17855 12.6875 3.06251 12.6875H2.63541C2.73622 10.4393 3.62462 8.29822 5.14507 6.63908L5.4441 6.93811C5.52615 7.02016 5.63743 7.06625 5.75347 7.06625C5.8695 7.06625 5.98079 7.02016 6.06283 6.93811C6.14488 6.85606 6.19098 6.74478 6.19098 6.62874C6.19098 6.51271 6.14488 6.40142 6.06283 6.31937L5.7638 6.02034C7.42298 4.49973 9.56419 3.61123 11.8125 3.51041V3.93751C11.8125 4.05355 11.8586 4.16483 11.9407 4.24687C12.0227 4.32892 12.134 4.37501 12.25 4.37501C12.366 4.37501 12.4773 4.32892 12.5594 4.24687C12.6414 4.16483 12.6875 4.05355 12.6875 3.93751V3.51041C14.9358 3.61115 17.077 4.49956 18.7362 6.02007L18.4372 6.3191C18.3551 6.40115 18.309 6.51243 18.3091 6.62847C18.3091 6.7445 18.3551 6.85579 18.4372 6.93783C18.5192 7.01988 18.6305 7.06598 18.7466 7.06598C18.8626 7.06598 18.9739 7.01988 19.0559 6.93783L19.355 6.6388C20.8755 8.29802 21.7639 10.4392 21.8646 12.6875H21.4375C21.3215 12.6875 21.2102 12.7336 21.1282 12.8157C21.0461 12.8977 21 13.009 21 13.125C21 13.241 21.0461 13.3523 21.1282 13.4344C21.2102 13.5164 21.3215 13.5625 21.4375 13.5625H21.8644C21.8448 14.0029 21.7951 14.4414 21.7157 14.875H18.8125C18.4645 14.8754 18.1309 15.0138 17.8849 15.2599C17.6388 15.5059 17.5004 15.8395 17.5 16.1875V16.625H15.3125C14.9645 16.6254 14.6309 16.7638 14.3849 17.0099C14.1388 17.2559 14.0004 17.5895 14 17.9375V22.3125C14 22.4067 14.0305 22.4983 14.0871 22.5736C13.6252 22.6628 13.1574 22.7181 12.6875 22.7391V22.3125C12.6875 22.1965 12.6414 22.0852 12.5594 22.0032C12.4773 21.9211 12.366 21.875 12.25 21.875ZM18.375 16.625V16.1875C18.3751 16.0715 18.4213 15.9603 18.5033 15.8783C18.5853 15.7963 18.6965 15.7501 18.8125 15.75H23.1875C23.3035 15.7501 23.4147 15.7963 23.4967 15.8783C23.5788 15.9603 23.6249 16.0715 23.625 16.1875V16.625H18.375ZM12.25 24.5C5.97785 24.5 0.875014 19.3972 0.875014 13.125C0.875014 6.85285 5.97785 1.75001 12.25 1.75001C18.5222 1.75001 23.625 6.85285 23.625 13.125C23.6248 13.7226 23.5781 14.3192 23.4852 14.9095C23.3876 14.8866 23.2877 14.8751 23.1875 14.875H22.6041C22.7011 14.2967 22.7499 13.7114 22.75 13.125C22.75 7.3353 18.0397 2.62501 12.25 2.62501C6.4603 2.62501 1.75001 7.3353 1.75001 13.125C1.75001 18.9147 6.4603 23.625 12.25 23.625C12.9852 23.625 13.7183 23.5481 14.4375 23.3958V24.289C13.7168 24.4292 12.9843 24.4999 12.25 24.5ZM26.6875 25.375H15.3125V22.75H16.625V23.1875C16.625 23.3035 16.6711 23.4148 16.7532 23.4969C16.8352 23.5789 16.9465 23.625 17.0625 23.625H18.8125C18.9285 23.625 19.0398 23.5789 19.1219 23.4969C19.2039 23.4148 19.25 23.3035 19.25 23.1875V22.75H22.75V23.1875C22.75 23.3035 22.7961 23.4148 22.8782 23.4969C22.9602 23.5789 23.0715 23.625 23.1875 23.625H24.9375C25.0535 23.625 25.1648 23.5789 25.2469 23.4969C25.3289 23.4148 25.375 23.3035 25.375 23.1875V22.75H26.6875V25.375Z" fill="white"/>
</g>
<defs>
<clipPath id="clip0_24499_34472">
<rect width="28" height="28" fill="white"/>
</clipPath>
</defs>
</svg>
