<svg width="28" height="28" viewBox="0 0 28 28" fill="none" xmlns="http://www.w3.org/2000/svg">
<g id="Frame">
<g id="Layer_x0020_1">
<g id="_360467616">
<g id="Group">
<g id="Group_2">
<path id="Vector" fill-rule="evenodd" clip-rule="evenodd" d="M26.0312 26.5781H1.96875C0.875 26.5781 0 25.7031 0 24.6094V9.07812C0 7.98438 0.875 7.10938 1.96875 7.10938H26.0312C27.125 7.10938 28 7.98438 28 9.07812V24.6094C28 25.7031 27.125 26.5781 26.0312 26.5781ZM1.96875 7.875C1.3125 7.875 0.765625 8.42188 0.765625 9.07812V24.6094C0.765625 25.2656 1.3125 25.8125 1.96875 25.8125H26.0312C26.6875 25.8125 27.2344 25.2656 27.2344 24.6094V9.07812C27.2344 8.42188 26.6875 7.875 26.0312 7.875H1.96875Z" fill="white"/>
</g>
<g id="Group_3">
<path id="Vector_2" fill-rule="evenodd" clip-rule="evenodd" d="M17.2266 17.2266H15.5312C15.3125 17.2266 15.1484 17.0625 15.1484 16.8438C15.1484 16.625 15.3125 16.4609 15.5312 16.4609H17.2266C21.5469 16.4609 25.4297 13.8906 27.2344 9.95312V9.07812C27.2344 8.42188 26.6875 7.875 26.0312 7.875H1.96875C1.3125 7.875 0.765625 8.42188 0.765625 9.07812V9.95312C2.57031 13.8906 6.45312 16.4609 10.7734 16.4609H12.4688C12.6875 16.4609 12.8516 16.625 12.8516 16.8438C12.8516 17.0625 12.6875 17.2266 12.4688 17.2266H10.7734C6.125 17.2266 1.91406 14.4375 0.0546875 10.1719C0 10.1172 0 10.0625 0 10.0078V9.07812C0 7.98438 0.875 7.10938 1.96875 7.10938H26.0312C27.125 7.10938 28 7.98438 28 9.07812V10.0078C28 10.0625 28 10.1172 27.9453 10.1719C26.0859 14.4375 21.875 17.2266 17.2266 17.2266Z" fill="white"/>
</g>
<g id="Group_4">
<path id="Vector_3" fill-rule="evenodd" clip-rule="evenodd" d="M15.5312 18.2656H12.4688C12.25 18.2656 12.0859 18.1016 12.0859 17.8828V15.75C12.0859 15.5312 12.25 15.3672 12.4688 15.3672H15.5312C15.75 15.3672 15.9141 15.5312 15.9141 15.75V17.8828C15.9141 18.1016 15.75 18.2656 15.5312 18.2656ZM12.8516 17.5H15.1484V16.1328H12.8516V17.5Z" fill="white"/>
</g>
<g id="Group_5">
<path id="Vector_4" fill-rule="evenodd" clip-rule="evenodd" d="M14.8203 19.5781H13.1797C12.9609 19.5781 12.7969 19.4141 12.7969 19.1953V17.9375C12.7969 17.7188 12.9609 17.5547 13.1797 17.5547C13.3984 17.5547 13.5625 17.7188 13.5625 17.9375V18.8125H14.4375V17.9375C14.4375 17.7188 14.6016 17.5547 14.8203 17.5547C15.0391 17.5547 15.2031 17.7188 15.2031 17.9375V19.1953C15.2031 19.4141 15.0391 19.5781 14.8203 19.5781Z" fill="white"/>
</g>
<g id="Group_6">
<path id="Vector_5" fill-rule="evenodd" clip-rule="evenodd" d="M19.3594 7.875C19.1406 7.875 18.9766 7.71094 18.9766 7.49219V3.39062C18.9766 2.78906 18.5391 2.1875 17.9375 2.1875H10.0625C9.46094 2.1875 9.02344 2.78906 9.02344 3.39062V7.49219C9.02344 7.71094 8.85938 7.875 8.64062 7.875C8.42188 7.875 8.25781 7.71094 8.25781 7.49219V3.39062C8.25781 2.29688 9.07812 1.42188 10.0625 1.42188H17.9375C18.9219 1.42188 19.7422 2.29688 19.7422 3.39062V7.49219C19.7422 7.71094 19.5781 7.875 19.3594 7.875ZM17.5547 7.875C17.3359 7.875 17.1719 7.71094 17.1719 7.49219V4.04688H10.8281V7.49219C10.8281 7.71094 10.6641 7.875 10.4453 7.875C10.2266 7.875 10.0625 7.71094 10.0625 7.49219V3.66406C10.0625 3.44531 10.2266 3.28125 10.4453 3.28125H17.5547C17.7734 3.28125 17.9375 3.44531 17.9375 3.66406V7.49219C17.9375 7.71094 17.7734 7.875 17.5547 7.875Z" fill="white"/>
</g>
<g id="Group_7">
<path id="Vector_6" fill-rule="evenodd" clip-rule="evenodd" d="M21.4375 26.5781C21.2188 26.5781 21.0547 26.4141 21.0547 26.1953V16.0234C21.0547 15.8047 21.2188 15.6406 21.4375 15.6406C21.6562 15.6406 21.8203 15.8047 21.8203 16.0234V26.1953C21.8203 26.4141 21.6562 26.5781 21.4375 26.5781ZM6.5625 26.5781C6.34375 26.5781 6.17969 26.4141 6.17969 26.1953V16.0234C6.17969 15.8047 6.34375 15.6406 6.5625 15.6406C6.78125 15.6406 6.94531 15.8047 6.94531 16.0234V26.1953C6.94531 26.4141 6.78125 26.5781 6.5625 26.5781Z" fill="white"/>
</g>
<g id="Group_8">
<g id="Group_9">
<path id="Vector_7" fill-rule="evenodd" clip-rule="evenodd" d="M18.8125 21.7109H9.1875C8.96875 21.7109 8.80469 21.5469 8.80469 21.3281C8.80469 21.1094 8.96875 20.9453 9.1875 20.9453H18.8125C19.0312 20.9453 19.1953 21.1094 19.1953 21.3281C19.1953 21.5469 19.0312 21.7109 18.8125 21.7109Z" fill="white"/>
</g>
<g id="Group_10">
<path id="Vector_8" fill-rule="evenodd" clip-rule="evenodd" d="M17.7188 24.3906H10.2812C10.0625 24.3906 9.89844 24.2266 9.89844 24.0078C9.89844 23.7891 10.0625 23.625 10.2812 23.625H17.7188C17.9375 23.625 18.1016 23.7891 18.1016 24.0078C18.1016 24.2266 17.9375 24.3906 17.7188 24.3906Z" fill="white"/>
</g>
</g>
</g>
</g>
</g>
</g>
</svg>
